<?xml version="1.0" encoding="UTF-8" standalone="no"?>
<!-- Created with Inkscape (http://www.inkscape.org/) -->

<svg
   version="1.1"
   id="svg1"
   width="1486.8667"
   height="318.21332"
   viewBox="0 0 1486.8667 318.21332"
   sodipodi:docname="parc rural oliva.eps"
   xmlns:inkscape="http://www.inkscape.org/namespaces/inkscape"
   xmlns:sodipodi="http://sodipodi.sourceforge.net/DTD/sodipodi-0.dtd"
   xmlns="http://www.w3.org/2000/svg"
   xmlns:svg="http://www.w3.org/2000/svg">
  <defs
     id="defs1" />
  <sodipodi:namedview
     id="namedview1"
     pagecolor="#ffffff"
     bordercolor="#000000"
     borderopacity="0.25"
     inkscape:showpageshadow="2"
     inkscape:pageopacity="0.0"
     inkscape:pagecheckerboard="0"
     inkscape:deskcolor="#d1d1d1">
    <inkscape:page
       x="0"
       y="0"
       inkscape:label="1"
       id="page1"
       width="1486.8667"
       height="318.21332"
       margin="0"
       bleed="0" />
  </sodipodi:namedview>
  <g
     id="g1"
     inkscape:groupmode="layer"
     inkscape:label="1">
    <g
       id="group-R5">
      <path
         id="path2"
         d="m 2918.98,680.012 c -32.23,-129.801 -83.34,-253.524 -122.82,-381 -24.87,-80.293 -53.51,-159.403 -79.06,-239.4925 -8.18,-25.6406 -20.77,-34.6797 -49.14,-34.6289 -116.99,0.1992 -115.34,-0.5508 -150.64,111.0974 -56.02,177.231 -114.49,353.672 -180.89,529.703 0,-25.48 0,-50.972 0,-76.461 0.01,-173.179 -0.91,-346.378 0.83,-519.5503 0.35,-34.5703 -8.32,-47.1094 -44.03,-44.5899 -48.05,3.3985 -96.46,1.8204 -144.71,2.379 -10.79,16.2695 -9.86,34.7304 -9.87,53 -0.06,264.1012 -0.11,528.1992 0.1,792.2932 0.01,14.797 -1.85,30.066 6.49,43.738 77.76,25.379 155.65,24.32 233.62,0.961 26.21,-4.422 60.3,8.289 69.93,-32.172 30.42,-37.84 40.73,-82.211 42.09,-129.488 1.7,-3.981 3.41,-7.973 5.12,-11.961 14.14,-6.192 11.71,-17.988 10.01,-29.539 8.29,-30.539 15.51,-61.449 32.32,-88.891 44.98,-79.351 64,-168.488 95.84,-248.699 14.6,33.328 15.19,76.777 45.06,108.391 11.67,7.308 8.57,19.57 10.16,30.257 27.51,87.25 42.83,178.821 91.59,258.551 7.94,5.512 7.18,13.738 6.81,21.852 -4.45,16.269 -2.25,30.019 14.47,38.289 7.38,5.82 6.03,14.008 5.94,21.847 4.13,60.852 15.9,73.5 74.29,75.313 48.2,1.488 96.47,0.918 144.69,0.098 18.17,-0.309 36.94,0.16 51.63,-13.797 6.6,-0.024 13.19,-0.051 19.78,-0.071 10.31,4.731 19.26,3.649 26.21,-6.082 10.07,-18.531 7.91,-38.847 7.92,-58.668 0.24,-252.961 0.29,-505.929 -0.09,-758.8902 -0.03,-22.7891 4.6,-47.1914 -13.98,-66.3399 -60.05,0 -120.09,0 -180.14,0 -9.23,17.25 -4.5,35.8907 -4.54,53.8008 -0.4,186.1483 -0.13,372.2893 -0.47,558.4293 -0.03,14.489 3.88,29.547 -4.02,43.629 -3.22,5.739 -7.17,8.95 -4.29,2.95 0.08,-0.168 -4.12,-3.282 -6.21,-6.258"
         style="fill:#8c9529;fill-opacity:1;fill-rule:nonzero;stroke:none"
         transform="matrix(0.13333333,0,0,-0.13333333,0,318.21333)" />
      <path
         id="path3"
         d="m 4328.45,914.172 c 76.54,0.547 153.18,-0.981 229.57,2.629 31.93,1.508 39.16,-20.141 50.31,-38.641 103.51,-171.769 206.28,-343.98 309.3,-516.039 8.08,-13.5 16.39,-26.871 33.05,-37.949 0,89.039 0,178.09 0,267.129 0,94.89 0.96,189.789 -0.58,284.648 -0.47,28.961 5.17,42.621 37.99,40.473 51.22,-3.371 118.27,16.789 149.83,-8.684 33.04,-26.668 9.94,-96.468 10.18,-147.277 1.11,-229.723 -0.45,-459.449 1.43,-689.1602 0.31,-37.5313 -9.15,-48.5 -46.63,-46.4024 -59.74,3.3516 -119.81,0.9805 -179.73,0.8399 -16.46,-0.0391 -30.24,-0.9883 -41.34,17.832 C 4764.86,241.738 4646.6,439.148 4528.7,636.77 c -27.61,-7.18 -14.49,-29.719 -14.58,-44.622 -1.04,-172.039 -0.53,-344.078 -0.89,-516.1285 -0.03,-16.1797 4.37,-33.0976 -4.58,-48.5703 -60.04,0.0117 -120.08,0.0117 -180.12,0.0196 -7.16,10.5312 -4.71,22.5195 -4.71,33.9609 -0.13,272.9223 -0.13,545.8323 0,818.7503 0,11.449 -2.41,23.422 4.63,33.992"
         style="fill:#8c9529;fill-opacity:1;fill-rule:nonzero;stroke:none"
         transform="matrix(0.13333333,0,0,-0.13333333,0,318.21333)" />
      <path
         id="path4"
         d="m 3370.85,802.211 c 19.57,17.359 39.15,34.73 58.72,52.09 24.22,26.937 47.64,55.219 89.23,52.808 60.01,9.719 117.57,31.961 179.74,31.18 150.6,-1.891 288.49,-33.598 390.77,-156.16 70.71,-84.731 103.38,-184.457 105.91,-292.168 4.44,-188.941 -72.53,-377.051 -290.14,-457.1329 -232.17,-85.4375 -492.71,1.1328 -596.92,198.7029 -49.31,93.481 -66.06,193.387 -52.8,298.367 2.28,18.09 2.61,36.43 3.84,54.653 -0.26,2.187 -0.52,4.371 -0.81,6.558 -1.99,11.25 -0.87,22.411 0.7,33.621 17.08,53.032 45.1,100.27 76.4,145.891 9.37,13.641 18.17,27.078 35.36,31.59"
         style="fill:#8c9529;fill-opacity:1;fill-rule:nonzero;stroke:none"
         transform="matrix(0.13333333,0,0,-0.13333333,0,318.21333)" />
      <path
         id="path5"
         d="m 5478.97,1464.69 c -0.13,-104.98 -1.11,-209.97 0.18,-314.94 0.34,-27.71 -7.15,-39.33 -36.06,-36.57 -52.44,4.99 -119.38,-22.05 -153.72,11.41 -29.84,29.07 -8.07,95.05 -8.25,144.65 -0.85,228.29 0.56,456.6 -1.27,684.89 -0.32,39.9 11.01,52.03 50.77,50.21 126.31,-5.78 252.94,6.14 379.3,-7.68 245.77,-26.88 277.74,-243.25 214.78,-392.52 -23.83,-56.5 -69.8,-92.07 -128.75,-109.23 -23.57,-6.86 -26.05,-15.68 -13.07,-37.16 60.66,-100.46 119.72,-201.88 178.69,-303.35 6.23,-10.72 22.08,-20.84 14.04,-34.45 -7.59,-12.86 -24.24,-5.38 -36.85,-6.24 -14.93,-1.02 -30.51,2.32 -44.89,-0.65 -112.87,-23.31 -175.27,26.11 -213.7,131.18 -28.19,77.1 -73.89,147.79 -111.79,221.33 -29.89,7.94 -59.7,9.34 -89.41,-0.88"
         style="fill:#8c9529;fill-opacity:1;fill-rule:nonzero;stroke:none"
         transform="matrix(0.13333333,0,0,-0.13333333,0,318.21333)" />
      <path
         id="path6"
         d="m 7933.74,906.238 c 136.76,-5.25 230,-96.898 236.75,-232.168 4.11,-82.269 -7.89,-158.148 -71.8,-218.98 -22.5,-21.422 -49.56,-36.91 -75.81,-43.34 -45.32,-11.078 -25.54,-29.98 -13.55,-50.398 60.23,-102.59 120.82,-204.973 181.2,-307.4809 4.02,-6.832 7.39,-14.0391 14.66,-27.9805 -76.69,0 -147.37,0.4297 -218.04,-0.25 -23.28,-0.2187 -24.8,19 -31.83,32.5899 -50.1,96.8595 -99.5,194.1015 -149.29,291.1215 -12.34,24.039 -78.76,41.957 -99.9,26.57 -12.99,-9.473 -7.29,-24.543 -7.35,-37.121 -0.45,-91.602 -1.56,-183.231 0.49,-274.7893 0.69,-30.7226 -7.52,-40.9726 -38.76,-38.8906 -41.45,2.75 -83.27,1.7187 -124.85,0.2891 -24.35,-0.8321 -35.59,4.6211 -35.5,32.5507 0.91,274.8011 0.86,549.6091 0.04,824.4101 -0.08,26.438 8.49,34.27 34.29,33.899 114.87,-1.598 229.77,-1.54 344.65,-2.09 17.44,-7.871 37.28,0.761 54.6,-7.942"
         style="fill:#8c9529;fill-opacity:1;fill-rule:nonzero;stroke:none"
         transform="matrix(0.13333333,0,0,-0.13333333,0,318.21333)" />
      <path
         id="path7"
         d="m 8308.57,914.141 c 149.61,-1.582 299.93,14.699 448.61,-9.223 94.27,-15.156 168.75,-65.43 197.15,-161.109 29.76,-100.207 22.1,-197.539 -51.43,-280.27 -30.88,-34.73 -71.56,-52.93 -120.92,-62.609 72.62,-123.192 144.5,-245.121 221.05,-374.9886 -77.66,0 -148.16,0.1875 -218.66,-0.1133 -24.62,-0.0976 -28.02,20.8321 -35.88,36.0508 C 8700.57,154.641 8653.63,247.91 8606,340.82 c -17.22,33.578 -60.34,48.86 -95.72,36.59 -21.51,-7.461 -13.25,-24.59 -13.36,-37.582 -0.81,-91.648 -1.63,-183.34 0.22,-274.9569 0.61,-30.2305 -7.14,-41.582 -38.78,-39.7109 -49.82,2.9492 -99.89,1.75 -149.85,2.3086 -7.13,10.5429 -4.69,22.5195 -4.69,33.9726 -0.13,272.9106 -0.13,545.8286 0,818.7496 0,11.45 -2.47,23.438 4.75,33.95"
         style="fill:#8c9529;fill-opacity:1;fill-rule:nonzero;stroke:none"
         transform="matrix(0.13333333,0,0,-0.13333333,0,318.21333)" />
      <path
         id="path8"
         d="m 7600.71,1986.12 c 141.43,-4.52 235.96,-98.96 240.03,-239.8 4.11,-142.48 -34.96,-208.91 -158.86,-260.02 -34.5,-14.23 -11.25,-28 -4.2,-40.2 60.39,-104.49 121.79,-208.4 182.85,-312.49 4.03,-6.86 7.81,-13.86 15.55,-27.65 -76.78,0 -147.46,0.41 -218.13,-0.35 -14.6,-0.15 -20.78,7.57 -25.99,18.39 -53,110.19 -116.96,214.91 -163.86,328.15 -32.68,15.54 -65.89,10.81 -99.19,2.56 -0.12,-101.49 -1.51,-203.01 0.38,-304.47 0.61,-32.92 -5.21,-48.38 -42.54,-45.15 -47.71,4.14 -111.73,-15.37 -139.7,8.84 -32.2,27.88 -10.21,93.51 -10.27,142.56 -0.28,242.84 1.23,485.67 2.11,728.51 38.94,12.6 79.01,5.45 118.36,5.05 101.15,-1.03 202.44,6.51 303.46,-3.93"
         style="fill:#8c9529;fill-opacity:1;fill-rule:nonzero;stroke:none"
         transform="matrix(0.13333333,0,0,-0.13333333,0,318.21333)" />
      <path
         id="path9"
         d="m 9302.32,1986.35 c 131.44,-3.82 226.6,-87.18 245.43,-215.01 20.97,-142.39 -45.44,-250.41 -183.35,-294.33 71.44,-121.39 142.55,-242.21 218.38,-371.05 -77.29,0 -147.55,0.35 -217.79,-0.21 -21.79,-0.17 -27.12,16.42 -34.44,30.69 -54.27,105.82 -108.17,211.83 -162.18,317.78 -19.64,13.24 -41.71,3.87 -62.47,6.7 -27.55,3.75 -33.11,-10.73 -32.84,-35.15 1,-89.62 0.71,-179.27 0.11,-268.9 -0.11,-16.07 5.36,-33.23 -5.48,-48.25 -59.73,-0.38 -119.46,-0.76 -179.19,-1.15 -7.1,10.51 -4.68,22.44 -4.68,33.85 -0.13,271.87 -0.11,543.75 -0.06,815.62 0,9.88 -1.05,19.95 3.44,29.35 138.37,7.32 276.75,7.07 415.12,0.06"
         style="fill:#8c9529;fill-opacity:1;fill-rule:nonzero;stroke:none"
         transform="matrix(0.13333333,0,0,-0.13333333,0,318.21333)" />
      <path
         id="path10"
         d="m 6738.61,469.75 c 0.01,134.941 0.96,269.879 -0.7,404.801 -0.39,31.758 7.14,42.359 40.75,42.019 169.89,-1.742 339.83,-1.89 509.73,0.071 36.23,0.418 45.92,-11.25 43.09,-45.141 -2.76,-33.078 -2.68,-66.75 -0.01,-99.852 2.56,-31.808 -9.86,-39.238 -39.77,-38.757 -103.26,1.64 -206.58,-0.532 -309.82,1.328 -33.37,0.601 -46.39,-6.981 -46.31,-43.61 0.26,-117.05 -1.3,-117.07 116.17,-117.05 73.3,0.011 146.62,-0.938 219.88,0.632 27.36,0.59 39.2,-6.441 37.51,-35.972 -2.27,-39.848 -2.27,-80.02 -0.05,-119.879 1.53,-27.301 -8.81,-33.34 -34.21,-33.02 -99.93,1.27 -199.91,-0.672 -299.83,1.211 -30.5,0.571 -38.98,-7.64 -39.35,-38.722 -1.69,-139.739 -2.78,-139.731 134.08,-139.731 83.29,0.012 166.59,-0.859 249.86,0.531 27.8,0.469 39.08,-7.687 37.26,-36.8 -2.91,-46.258 14.38,-106.0395 -8.52,-135.4574 -24.59,-31.58988 -87.12,-9.4727 -132.93,-9.9805 -141.58,-1.5625 -283.25,1.7891 -424.74,-1.9102 -46.49,-1.2226 -53.93,13.8008 -53.07,55.5079 2.68,129.8832 0.98,259.8512 0.98,389.7812"
         style="fill:#8c9529;fill-opacity:1;fill-rule:nonzero;stroke:none"
         transform="matrix(0.13333333,0,0,-0.13333333,0,318.21333)" />
      <path
         id="path11"
         d="m 9004.54,25.8516 c 50.82,121.0274 99.01,236.3864 147.69,351.5464 70.1,165.852 141.15,331.301 210.34,497.532 12.18,29.289 27.4,38.07 60.44,42.922 93.72,13.757 136.02,-23.223 170.47,-111.051 97.68,-249.09 206.99,-493.653 313.68,-739.1408 16.68,-38.3711 6.59,-43.9883 -29.65,-42.4219 -56.49,2.4414 -121.98,-16.38674 -167.24,6.4023 -45.59,22.9492 -47.76,96.2304 -69.55,147.0974 -10.64,24.844 -21.2,36.211 -49.74,35.563 -86.53,-1.969 -173.18,-2.289 -259.69,0 -31.21,0.828 -43.71,-11.641 -52.75,-38.961 -13.99,-42.27 -32.88,-82.8986 -47.54,-124.9689 -5.78,-16.5898 -12.96,-24.9414 -31.23,-24.7617 -62.81,0.6211 -125.63,0.2422 -195.23,0.2422"
         style="fill:#8c9529;fill-opacity:1;fill-rule:nonzero;stroke:none"
         transform="matrix(0.13333333,0,0,-0.13333333,0,318.21333)" />
      <path
         id="path12"
         d="m 5201.83,1113.49 c -70.34,0 -131.88,0.59 -193.39,-0.32 -21.31,-0.32 -35.08,6.21 -40.4,27.79 -1.56,6.32 -5.58,12 -8.08,18.13 -18.59,45.63 -21.99,109 -60.33,131.66 -36.12,21.33 -93.75,6.64 -141.92,7.08 -51.64,0.47 -103.32,-1 -154.91,0.6 -23.8,0.74 -35.89,-7.61 -43.64,-30.05 -14.55,-42.14 -33.78,-82.71 -47.26,-125.14 -7.65,-24.09 -20.65,-30.58 -43.59,-30.07 -46.62,1.03 -93.4,2.32 -139.89,-0.35 -40.83,-2.35 -42.93,10.42 -28.25,44.59 101.8,236.88 201.96,474.46 302.64,711.81 3.23,7.61 6.51,15.21 9.69,22.85 51.18,123.16 51.17,123 183.77,111.77 15.72,-1.33 27.35,-3.26 34.86,-20.95 121.94,-287.32 244.7,-574.31 370.7,-869.4"
         style="fill:#8c9529;fill-opacity:1;fill-rule:nonzero;stroke:none"
         transform="matrix(0.13333333,0,0,-0.13333333,0,318.21333)" />
      <path
         id="path13"
         d="m 10126.2,1984.8 c 77.3,-178.87 154.9,-357.64 231.9,-536.64 43.7,-101.53 85.3,-203.97 130.4,-304.89 14.5,-32.5 8.2,-39.46 -25.6,-38.07 -58.2,2.39 -125.7,-17.01 -172.1,6.53 -46.6,23.61 -49.5,98.8 -71.5,151.29 -10.1,24.25 -23,31.3 -47.7,30.95 -86.5,-1.2 -173.14,-1.7 -259.66,0.25 -27.89,0.63 -42.4,-8.61 -51.29,-34.21 -14.64,-42.13 -31.71,-83.4 -47.19,-125.24 -6.02,-16.23 -11.41,-29.74 -33.6,-29.32 -62.75,1.21 -125.53,0.42 -195.07,0.42 49.4,116.43 96.12,227.1 143.3,337.58 77.15,180.65 154.6,361.18 231.93,541.76 55.38,8.66 110.78,9.21 166.18,-0.41"
         style="fill:#8c9529;fill-opacity:1;fill-rule:nonzero;stroke:none"
         transform="matrix(0.13333333,0,0,-0.13333333,0,318.21333)" />
      <path
         id="path14"
         d="m 8699.15,1381.83 c -12.76,-180.82 -146.8,-278.27 -284.13,-294.8 -106.18,-12.78 -212.56,-8.35 -304.91,58.4 -81,58.55 -126.68,137.14 -131.93,237.93 -9.03,29.19 -4.28,59.19 -4.16,88.73 0.71,170.84 -2.98,341.69 1.81,512.51 60.99,11.6 122.2,6.85 183.41,2.46 9.39,-57.61 2.71,-115.62 4.01,-173.43 2.91,-129.18 -4.34,-258.48 3.76,-387.63 31.69,-125.23 120.66,-185.13 223.56,-150.51 67.1,22.58 116.3,84.48 117.39,157.19 2.49,166.57 1.9,333.19 3.01,499.79 0.12,17.99 -4.43,36.64 4.56,53.97 61.6,6.7 123.18,7.32 184.75,-0.47 4.54,-201.39 6.69,-402.77 -1.13,-604.14"
         style="fill:#8c9529;fill-opacity:1;fill-rule:nonzero;stroke:none"
         transform="matrix(0.13333333,0,0,-0.13333333,0,318.21333)" />
      <path
         id="path15"
         d="m 3908.96,1454.73 c -0.13,-99.82 -1.34,-199.66 0.25,-299.46 0.5,-30.98 -5.84,-45.2 -40.44,-42.5 -39.69,3.08 -79.91,2.54 -119.7,0.13 -31.72,-1.92 -38.92,10.98 -38.82,40.39 0.86,269.53 0.69,539.07 0.02,808.6 -0.07,27.73 4.67,43.45 37.87,42.19 129.48,-4.89 259.22,6.72 388.65,-7.79 161.21,-18.07 238.75,-120.3 231.87,-308.79 -4.61,-126.32 -107.16,-218.96 -246.01,-222.25 -53.59,-9.71 -107.67,-1.31 -161.4,-4.55 -17.46,-1.05 -36.04,6.05 -52.29,-5.97"
         style="fill:#8c9529;fill-opacity:1;fill-rule:nonzero;stroke:none"
         transform="matrix(0.13333333,0,0,-0.13333333,0,318.21333)" />
      <path
         id="path16"
         d="m 6248.96,3.76953 c -93.7,-3.05078 -179.95,25.49217 -257.21,82.85157 -25.12,18.6489 -35.9,34.4879 -6.76,61.6089 32.74,30.461 61.26,65.668 90,100.149 16.54,19.859 27.15,20.391 46.69,1.371 56.1,-54.602 122.71,-77.5 200.55,-53.398 37.08,11.476 67.07,32.507 72.73,73.457 5.85,42.32 -20.22,68.511 -54.57,86.582 -51.45,27.05 -108.33,39.8 -162.55,59.597 -140.63,51.383 -193.26,120.012 -188.91,251.532 2.87,86.742 43.01,155.468 112.43,206.492 121.15,89.058 344.29,84.5 464.22,-6.532 23.3,-17.699 25.57,-27.91 4.4,-48.679 -30.8,-30.231 -59.58,-62.801 -86.71,-96.403 -17.68,-21.886 -27.2,-25.957 -53.44,-5.886 -54.33,41.566 -116.94,50.929 -182.53,21.679 -31.72,-14.16 -52.23,-37.011 -55.25,-70.8 -2.85,-31.84 15.96,-54.332 42.23,-71.051 31.21,-19.879 67.08,-27.801 101.16,-40.219 26.32,-9.59 53.76,-16.121 80.02,-25.84 124.7,-46.16 174.31,-111.613 175.4,-229.961 C 6592.07,169.93 6532.12,78.1016 6417.04,31.6016 6363.74,10.0703 6308.56,2.33203 6248.96,3.76953"
         style="fill:#8c9529;fill-opacity:1;fill-rule:nonzero;stroke:none"
         transform="matrix(0.13333333,0,0,-0.13333333,0,318.21333)" />
      <path
         id="path17"
         d="m 6508.19,1274.12 c 52.93,11.9 102.19,31.63 134.89,77.25 13.05,18.2 21.33,14.32 35.1,3.57 40.57,-31.66 80.95,-63.67 123.07,-93.18 19.66,-13.77 16.41,-22.99 3.34,-38.7 -81.53,-97.96 -189.33,-135.19 -312.56,-134.84 -226.4,0.64 -400.47,134.31 -447.7,354.28 -53.66,249.91 55.5,499.79 326.78,568.03 17.36,4.37 35.91,4.02 53.9,5.86 23.58,10.29 49.49,-1.42 73.19,7.76 3.62,0 7.23,0 10.85,0 20.34,-8.7 43.06,1.96 63.29,-7.76 85.72,-3.05 152.26,-45.94 212.21,-102.36 15.28,-14.39 15.09,-26.94 -3.57,-39.49 -15.07,-10.15 -28.45,-22.84 -42.47,-34.54 -25.46,-21.27 -47.8,-50.18 -77.05,-61.93 -32.35,-13 -49.91,28.18 -76.99,41.06 -94.99,45.17 -215.73,16.94 -286.69,-70.65 -86.76,-107.09 -79.87,-298.58 13.78,-399.86 37.58,-40.63 84.54,-62.84 137.51,-74.49 19.71,-5.56 39.41,-5.54 59.12,-0.01"
         style="fill:#8c9529;fill-opacity:1;fill-rule:nonzero;stroke:none"
         transform="matrix(0.13333333,0,0,-0.13333333,0,318.21333)" />
      <path
         id="path18"
         d="m 5248.46,914.078 c 216.15,0.563 432.31,0.762 648.46,2.172 25.45,0.172 33.6,-6.512 34.66,-33.141 5.8,-145.199 6.6,-145.168 -138.11,-145.168 -107.02,0 -107.03,0 -107.03,-104.742 0,-187.918 -0.88,-375.859 0.79,-563.7576 0.31,-34.793 -8.86,-46.7812 -44.2,-44.332 -48,3.3203 -96.33,1.789 -144.52,2.3515 -9.12,17.2891 -4.52,35.9375 -4.55,53.8907 -0.38,204.5464 -1.25,409.1094 0.67,613.6364 0.35,38.032 -10.75,47.59 -47.68,46.961 -66.17,-1.14 -132.67,-6.199 -198.76,3.301 h -0.25 c -6.73,56.301 -7.43,112.578 0.52,168.828"
         style="fill:#8c9529;fill-opacity:1;fill-rule:nonzero;stroke:none"
         transform="matrix(0.13333333,0,0,-0.13333333,0,318.21333)" />
      <path
         id="path19"
         d="m 9818.61,745.352 c -17.21,49.828 -4.16,101.179 -7.46,151.718 -1.3,19.918 14.65,18.649 27.94,18.649 212.91,0.07 425.91,0.062 638.81,-0.008 13.3,0 29.3,1.199 28,-18.641 -3.2,-50.55 9.8,-101.91 -7.4,-151.742 -66,-9.668 -132.5,-4.566 -198.6,-3.348 -37.5,0.692 -47.7,-9.789 -47.3,-47.3 1.8,-204.442 1,-408.899 0.6,-613.3519 0,-17.9375 4.6,-36.5781 -4.5,-53.8593 -60.1,0 -120.1,0 -180.2,0 -9.1,17.2812 -4.5,35.9218 -4.5,53.8593 -0.4,204.4729 -1.3,408.9529 0.6,613.4019 0.3,37.598 -10,47.918 -47.4,47.25 -66.08,-1.191 -132.56,-6.351 -198.59,3.372"
         style="fill:#8c9529;fill-opacity:1;fill-rule:nonzero;stroke:none"
         transform="matrix(0.13333333,0,0,-0.13333333,0,318.21333)" />
      <path
         id="path20"
         d="m 3458.55,1725.8 c -0.02,-204.93 -0.77,-409.88 0.7,-614.8 0.25,-34.6 -4.73,-48.71 -44.93,-48.54 -411.54,1.68 -823.08,1.41 -1234.62,0.37 -32.34,-0.08 -41.95,8.27 -41.86,41.3 1.1,413.2 1.24,826.41 -0.11,1239.61 -0.12,36.56 11.66,42.83 45.11,42.74 409.88,-1.13 819.75,-1.23 1229.62,0.15 36.65,0.12 47.47,-7.85 47.08,-46.02 -2.07,-204.92 -0.97,-409.87 -0.99,-614.81"
         style="fill:#8b9529;fill-opacity:1;fill-rule:nonzero;stroke:none"
         transform="matrix(0.13333333,0,0,-0.13333333,0,318.21333)" />
      <path
         id="path21"
         d="m 10786.9,1985.78 c 0.6,-216.28 2.1,-432.56 0.8,-648.83 -0.3,-38.77 9.1,-51.26 49.1,-49.84 88.1,3.13 176.4,-0.28 264.5,1.6 33.2,0.71 49.3,-6.7 45.6,-43.58 -4.6,-44.28 18,-101.9 -8.6,-130.01 -26.9,-28.53 -84.9,-8.4 -129.2,-8.85 -126.4,-1.29 -252.9,-0.07 -379.4,-0.78 -24.4,-0.14 -39.7,1.2 -39.5,33.48 1.2,277.87 0.8,555.75 1.1,833.63 0,4.64 2.8,9.28 4.4,13.91 63.7,6.5 127.5,7.63 191.2,-0.73"
         style="fill:#8c9529;fill-opacity:1;fill-rule:nonzero;stroke:none"
         transform="matrix(0.13333333,0,0,-0.13333333,0,318.21333)" />
      <path
         id="path22"
         d="m 0.75,470.609 c 0,134.77 1.02734,269.551 -0.734375,404.289 -0.433594,32.883 9.031255,43.293 41.871075,41.442 114.3243,-6.442 229.2183,9.41 343.3593,-9.02 199.84,-32.281 373.969,-201.449 366.895,-444 C 745.664,241.16 609.051,74.1914 385.547,34.8086 266.863,13.8984 146.676,30.9492 27.3125,25.6211 -6.55859,24.1094 0.972656,47.8711 0.925781,66.3008 0.601563,201.07 0.75,335.84 0.75,470.609"
         style="fill:#8c9529;fill-opacity:1;fill-rule:nonzero;stroke:none"
         transform="matrix(0.13333333,0,0,-0.13333333,0,318.21333)" />
      <path
         id="path23"
         d="m 1398.67,27.4609 c -173.11,-0.5507 -346.22,-0.7226 -519.318,-2.0898 -23.684,-0.1914 -31.278,6.75 -31.215,30.8477 0.726,276.3712 0.73,552.7422 -0.008,829.1012 -0.063,24.168 7.676,31.008 31.242,30.891 159.819,-0.832 319.659,-1.449 479.469,0.359 39.01,0.45 31.36,-23 32.21,-45.32 0.96,-24.961 1.19,-44.539 -34.94,-44 -124.84,1.891 -249.74,-0.641 -374.567,1.621 -35.617,0.641 -45.07,-9.91 -43.762,-44.519 2.641,-69.821 2.313,-139.872 0.016,-209.723 -1.063,-32.328 8.418,-42.41 41.351,-41.82 109.842,1.992 219.762,-0.047 329.622,1.293 34.01,0.418 54.21,-1.051 54.06,-46.34 -0.14,-44 -20.76,-42.602 -51.52,-42.332 -111.54,0.992 -223.11,-0.758 -334.626,1.121 -30.887,0.519 -39.633,-7.973 -38.848,-38.879 2.152,-84.852 2.613,-169.852 -0.148,-254.672 -1.153,-35.371 12.859,-40.398 43.121,-40.051 123.181,1.403 246.391,0.84 369.591,0.481 16.29,-0.051 33.32,4.351 48.86,-4.66 6.45,-27.1489 7.39,-54.2583 -0.59,-81.3091"
         style="fill:#8c9529;fill-opacity:1;fill-rule:nonzero;stroke:none"
         transform="matrix(0.13333333,0,0,-0.13333333,0,318.21333)" />
      <path
         id="path24"
         d="m 1530.76,469.371 c 0,134.848 2.06,269.75 -1.17,404.52 -1.06,44.32 21.07,41.57 51.32,42.711 32.22,1.207 46.68,-4.731 46.39,-42.5 -1.8,-238.051 -0.13,-476.133 -1.85,-714.18 -0.27,-37.024 8.93,-48.141 46.75,-47.203 106.48,2.66 213.11,-0.758 319.6,1.793 36.91,0.879 40.19,-15.7229 39.7,-44.762 -0.45,-27.2617 0.43,-45.6992 -38.19,-44.9805 -141.46,2.6211 -283,1.961 -424.49,0.3203 -31.47,-0.371 -39.06,9.5899 -38.72,39.7422 1.52,134.84 0.66,269.688 0.66,404.539"
         style="fill:#8c9529;fill-opacity:1;fill-rule:nonzero;stroke:none"
         transform="matrix(0.13333333,0,0,-0.13333333,0,318.21333)" />
      <path
         id="path25"
         d="m 2378.86,917.461 c -76.77,-1.102 -153.54,-2.211 -230.3,-3.313 -9.74,-17.117 -4.83,-35.789 -4.85,-53.648 -0.37,-257.289 -0.1,-514.57 -0.59,-771.8516 -0.03,-17.5664 6.45,-36.539 -6.21,-52.8593 -14.46,17.5703 -7.99,38.4297 -8.02,57.75 -0.45,251.3909 0.27,502.7889 -0.79,754.1799 -0.21,49.152 -5.12,98.461 -10.92,147.332 -4.5,37.899 11.13,56.269 47.04,60.489 8.21,0.97 16.63,0.23 24.95,0.23 406.23,0.01 812.46,-0.05 1218.69,0.15 25.29,0.01 50.06,1.46 67.77,-22.09 7.26,-9.67 15.04,-18.61 9.74,-31.28 -5.09,-12.14 -15.87,-16.941 -28.33,-16.359 -20.96,0.981 -43.21,-6.14 -61.51,11.911 -11.85,11.698 -28.35,7.558 -43.03,7.558 -366.27,0.17 -732.54,0.14 -1098.81,0.06 -7.99,0 -15.98,-1.02 -24.54,-5.52 62.33,-6.098 129.12,6.92 179.44,-44.399 1.68,-21.77 -18.42,-26.653 -29.73,-38.34"
         style="fill:#fbf9f8;fill-opacity:1;fill-rule:nonzero;stroke:none"
         transform="matrix(0.13333333,0,0,-0.13333333,0,318.21333)" />
      <path
         id="path26"
         d="m 3118.65,914.102 c -6.69,1.109 -13.37,2.226 -20.06,3.339 1.21,7.469 -3.32,17.149 6.7,21.309 6.04,2.5 34.79,-22.922 13.6,11.121 -9.26,14.879 -1.04,22.488 8.77,28.027 6.28,3.563 17.76,4.551 23.57,1.082 16.03,-9.558 2.91,-19.71 -2.84,-28.371 -5.82,-8.769 -4.49,-16.621 2.75,-21.769 34.78,-24.738 27.38,-61.192 27.39,-95.488 0.11,-251.192 0.18,-502.383 -0.04,-753.5629 -0.04,-53.5703 -10.61,-64.0391 -50.34,-52.8477 -8.42,17.4688 -4.19,36.0899 -4.21,54.1094 -0.32,259.7302 -0.1,519.4692 -0.47,779.2112 -0.02,17.918 4.85,36.636 -4.82,53.84"
         style="fill:#fbf9f8;fill-opacity:1;fill-rule:nonzero;stroke:none"
         transform="matrix(0.13333333,0,0,-0.13333333,0,318.21333)" />
      <path
         id="path27"
         d="m 3078.81,917.512 c -57.42,-0.582 -115.18,-5.223 -172.16,-0.512 -51.48,4.25 -86.38,-7.121 -98.45,-61.102 -5.79,18.731 -31.49,14.821 -36.78,40.27 -18.44,88.852 -20.88,90.352 92.71,98.762 60.9,4.511 122.5,3.039 183.59,0.218 61.92,-2.867 21.94,-51.078 31.09,-77.636"
         style="fill:#fbf9f8;fill-opacity:1;fill-rule:nonzero;stroke:none"
         transform="matrix(0.13333333,0,0,-0.13333333,0,318.21333)" />
      <path
         id="path28"
         d="m 2679.23,485.102 c -8.8,-47.051 -28.2,-90.481 -46.71,-141.243 -32.77,97.719 -70.63,187.172 -94.19,281.551 8.62,15.629 9.65,44.649 35.98,34.82 20.34,-7.589 25.9,-22.75 21.05,-53.519 -6.62,-41.93 -0.67,-91.441 21.85,-133.359 4.78,-8.911 11.3,-8.75 17.31,2.918 11.81,22.89 27.42,18.16 44.71,8.832"
         style="fill:#fbf9f8;fill-opacity:1;fill-rule:nonzero;stroke:none"
         transform="matrix(0.13333333,0,0,-0.13333333,0,318.21333)" />
      <path
         id="path29"
         d="m 5248.19,745.25 c 66.6,0.238 133.34,-2.141 199.74,1.641 44.35,2.519 51.68,-16.012 51.4,-55.102 -1.58,-221.43 -0.8,-442.891 -0.82,-664.3281 -20.93,12.75 -9.17,33.0391 -9.25,48.9883 -1.04,206.1798 -1.57,412.3708 0.16,618.5308 0.3,35.348 -9.78,43.879 -44.24,44.098 -65.62,0.402 -131.82,-9.668 -196.99,6.172"
         style="fill:#7a842f;fill-opacity:1;fill-rule:nonzero;stroke:none"
         transform="matrix(0.13333333,0,0,-0.13333333,0,318.21333)" />
      <path
         id="path30"
         d="m 9818.61,745.352 c 66.57,0.226 133.22,-1.543 199.69,1.429 39,1.75 51.5,-10.031 51.2,-50.261 -1.9,-223.008 -1,-446.032 -1,-669.0512 -20.9,12.75 -9.1,33.0312 -9.2,48.9726 -1.1,206.0786 -1.6,412.1796 0.1,618.2496 0.3,34.899 -9.1,44.188 -44,44.36 -65.55,0.32 -131.71,-9.832 -196.79,6.301"
         style="fill:#7b8430;fill-opacity:1;fill-rule:nonzero;stroke:none"
         transform="matrix(0.13333333,0,0,-0.13333333,0,318.21333)" />
      <path
         id="path31"
         d="m 10248.7,27.4688 c -0.1,223.0002 0.9,446.0192 -1,669.0112 -0.3,40.141 12.1,52.079 51.2,50.309 66.4,-3 133.1,-1.23 199.6,-1.461 -65.1,-16.238 -131.2,-5.93 -196.8,-6.269 -34.8,-0.18 -44.2,-9.239 -44,-44.219 1.7,-206.102 1.2,-412.231 0.1,-618.34 0,-15.9609 11.7,-36.2187 -9.1,-49.0312"
         style="fill:#7d8430;fill-opacity:1;fill-rule:nonzero;stroke:none"
         transform="matrix(0.13333333,0,0,-0.13333333,0,318.21333)" />
      <path
         id="path32"
         d="m 8308.57,914.141 c -0.02,-295.563 -0.04,-591.121 -0.06,-886.6722 -18.49,6.9218 -9.43,22.8203 -9.45,34.0625 -0.61,272.8667 -0.61,545.7497 0,818.6287 0.03,11.211 -9.12,27.149 9.51,33.981"
         style="fill:#7b8430;fill-opacity:1;fill-rule:nonzero;stroke:none"
         transform="matrix(0.13333333,0,0,-0.13333333,0,318.21333)" />
      <path
         id="path33"
         d="m 2136.91,35.7891 c 0.55,276.4489 0.84,552.9019 2.34,829.3399 0.09,15.961 -11.73,36.293 9.31,49.019 -0.02,-295.558 -0.03,-591.117 -0.04,-886.6792 -6.97,-1.5469 -9.56,3.0117 -11.61,8.3203"
         style="fill:#7b8430;fill-opacity:1;fill-rule:nonzero;stroke:none"
         transform="matrix(0.13333333,0,0,-0.13333333,0,318.21333)" />
      <path
         id="path34"
         d="m 3118.65,914.102 c 18.41,-9.172 9.43,-26.122 9.45,-39.024 0.48,-282.707 0.19,-565.43 0.05,-848.1366 l -4.81,-0.7617 -4.69,1.2812 c 0,295.5511 0,591.0901 0,886.6411"
         style="fill:#7b8431;fill-opacity:1;fill-rule:nonzero;stroke:none"
         transform="matrix(0.13333333,0,0,-0.13333333,0,318.21333)" />
      <path
         id="path35"
         d="m 2780.98,773.91 c -27.5,-87.262 -54.68,-174.629 -91.59,-258.551 -28.72,33.852 2.38,65.563 13.87,88.692 12.09,24.34 13.39,45.14 15.02,71.64 -12.56,-4.429 -22.69,-30.75 -36.09,-5.363 -13.69,25.934 18.03,9 17.17,17.332 -0.75,7.231 47.76,8.82 1.91,21.27 -20.42,5.539 -1.9,27.601 5.27,27.492 32.46,-0.531 48.97,26.797 74.44,37.488"
         style="fill:#fbf9f8;fill-opacity:1;fill-rule:nonzero;stroke:none"
         transform="matrix(0.13333333,0,0,-0.13333333,0,318.21333)" />
      <path
         id="path36"
         d="m 4328.45,914.172 c 0.03,-295.57 0.05,-591.141 0.08,-886.7032 -18.49,6.9296 -9.44,22.8203 -9.46,34.0625 -0.61,272.8277 -0.61,545.6677 0,818.4997 0.02,11.27 -8.99,27.117 9.38,34.141"
         style="fill:#7c8331;fill-opacity:1;fill-rule:nonzero;stroke:none"
         transform="matrix(0.13333333,0,0,-0.13333333,0,318.21333)" />
      <path
         id="path37"
         d="m 8888.94,1985.55 c -0.14,-292.69 -0.29,-585.39 -0.44,-878.08 -16.95,5.01 -9.54,19.21 -9.56,29.03 -0.45,275.71 -0.42,551.43 -0.07,827.14 0.01,10.33 -5.77,23.98 9.79,29.79 3.46,-1.63 4.65,-3.34 3.59,-5.13 -1.08,-1.83 -2.18,-2.75 -3.31,-2.75"
         style="fill:#7c8331;fill-opacity:1;fill-rule:nonzero;stroke:none"
         transform="matrix(0.13333333,0,0,-0.13333333,0,318.21333)" />
      <path
         id="path38"
         d="m 3370.85,802.211 c -46.67,-55.281 -80.47,-117.723 -103.61,-186.09 -17.64,-6.051 3.86,-22.351 -7.84,-29.953 l -0.2,-1.609 c -1.6,0.472 -3.18,0.972 -4.79,1.421 -17.55,4.848 -20.98,23.739 -14.77,31.7 28.82,36.949 -20.33,106.332 12.13,109.621 62.54,6.347 64.63,55.738 93.71,84.879 17.2,17.242 21.51,5 25.37,-9.969"
         style="fill:#fbf9f8;fill-opacity:1;fill-rule:nonzero;stroke:none"
         transform="matrix(0.13333333,0,0,-0.13333333,0,318.21333)" />
      <path
         id="path39"
         d="m 2490.88,755.801 c -16.13,42.488 -34.63,84.199 -42.09,129.488 9.45,32.492 34.72,16.949 53.43,15.992 27.8,-1.429 14.74,-24.75 15.8,-38.48 2.58,-33.403 5.89,-67.09 -7.52,-99.75 -4.79,-11.68 -13.16,-4.903 -19.62,-7.25"
         style="fill:#fbf9f8;fill-opacity:1;fill-rule:nonzero;stroke:none"
         transform="matrix(0.13333333,0,0,-0.13333333,0,318.21333)" />
      <path
         id="path40"
         d="m 2918.98,680.012 c 4.6,6.847 3.84,29.5 18.36,8.656 5.48,-7.867 1.23,-22.598 1.23,-34.199 0,-209.008 -0.03,-418.008 -0.06,-627.0081 -20.09,10.8399 -9.32,29.4883 -9.38,43.9297 -0.85,185.9614 -0.28,371.9184 -1.06,557.8794 -0.07,16.832 9.2,36.679 -9.09,50.742"
         style="fill:#7a842f;fill-opacity:1;fill-rule:nonzero;stroke:none"
         transform="matrix(0.13333333,0,0,-0.13333333,0,318.21333)" />
      <path
         id="path41"
         d="m 4508.65,27.4492 c -0.02,195.9218 -0.22,391.8398 1.23,587.7418 0.02,3.911 -22.78,46.938 18.82,21.579 -20.26,-13.02 -9.39,-33.168 -9.48,-49.411 -0.98,-172.05 -0.31,-344.097 -1.18,-516.1481 -0.07,-14.3828 10.68,-32.9804 -9.39,-43.7617"
         style="fill:#7b8531;fill-opacity:1;fill-rule:nonzero;stroke:none"
         transform="matrix(0.13333333,0,0,-0.13333333,0,318.21333)" />
      <path
         id="path42"
         d="m 8699.15,1381.83 c -0.28,201.19 -0.56,402.37 -0.84,603.56 2.46,4.25 5.09,4.35 7.87,0.31 0.72,-190.4 1.6,-380.8 1.77,-571.2 0.01,-10.88 -5.74,-21.78 -8.8,-32.67"
         style="fill:#7b8430;fill-opacity:1;fill-rule:nonzero;stroke:none"
         transform="matrix(0.13333333,0,0,-0.13333333,0,318.21333)" />
      <path
         id="path43"
         d="m 7978.83,1985.36 c -0.22,-200.66 -0.44,-401.33 -0.65,-602 -9.83,8.91 -9.23,21.3 -9.2,32.54 0.39,189.91 1.21,379.82 1.93,569.74 2.79,4.07 5.43,3.98 7.92,-0.28"
         style="fill:#7a8430;fill-opacity:1;fill-rule:nonzero;stroke:none"
         transform="matrix(0.13333333,0,0,-0.13333333,0,318.21333)" />
      <path
         id="path44"
         d="m 8167.01,1426 c -14.09,15.64 -8.1,34.79 -8.16,52.38 -0.54,169 -0.47,338.01 -0.57,507.02 2.52,4.12 5.18,4.42 7.98,0.28 0.25,-186.56 0.5,-373.12 0.75,-559.68"
         style="fill:#7b8431;fill-opacity:1;fill-rule:nonzero;stroke:none"
         transform="matrix(0.13333333,0,0,-0.13333333,0,318.21333)" />
      <path
         id="path45"
         d="m 3518.8,907.109 c -29.75,-17.609 -59.49,-35.211 -89.23,-52.808 -24.2,21.359 -30.02,35.238 5.99,55.527 31.06,17.5 64.59,8.75 93.35,25.352 5.28,-14.692 -7.96,-18.989 -10.11,-28.071"
         style="fill:#fbf9f8;fill-opacity:1;fill-rule:nonzero;stroke:none"
         transform="matrix(0.13333333,0,0,-0.13333333,0,318.21333)" />
      <path
         id="path46"
         d="m 9067.69,1108.62 c 0.23,95.93 0.51,191.85 0.67,287.77 0.12,76.11 25.18,90.64 100.01,57.83 -92.09,4.67 -92.05,4.67 -91.98,-86.58 0.06,-71.16 0.67,-142.34 -0.52,-213.48 -0.25,-15.05 8.99,-33.09 -8.18,-45.54"
         style="fill:#7b8530;fill-opacity:1;fill-rule:nonzero;stroke:none"
         transform="matrix(0.13333333,0,0,-0.13333333,0,318.21333)" />
      <path
         id="path47"
         d="m 7600.71,1986.12 c -140.61,-0.37 -281.21,-0.74 -421.82,-1.12 1.75,11.25 10.55,10.65 18.55,10.65 123.58,0.01 247.16,0.16 370.73,-0.55 10.87,-0.06 21.69,-5.85 32.54,-8.98"
         style="fill:#7b8431;fill-opacity:1;fill-rule:nonzero;stroke:none"
         transform="matrix(0.13333333,0,0,-0.13333333,0,318.21333)" />
      <path
         id="path48"
         d="m 8888.94,1985.55 c -0.19,2.62 -0.28,5.25 -0.28,7.88 127.02,0.7 254.05,1.63 381.07,1.7 10.85,0 21.7,-5.71 32.57,-8.77 -137.77,-0.28 -275.56,-0.54 -413.36,-0.81"
         style="fill:#7b8530;fill-opacity:1;fill-rule:nonzero;stroke:none"
         transform="matrix(0.13333333,0,0,-0.13333333,0,318.21333)" />
      <path
         id="path49"
         d="m 3908.96,1454.73 c 38.11,23.22 79.87,7.09 119.79,10.5 31.06,2.65 62.55,0.2 93.88,0.02 -70.35,-21.03 -142.64,-2.96 -213.67,-10.52"
         style="fill:#7b8431;fill-opacity:1;fill-rule:nonzero;stroke:none"
         transform="matrix(0.13333333,0,0,-0.13333333,0,318.21333)" />
      <path
         id="path50"
         d="m 8166.26,1985.68 c -2.66,0 -5.32,-0.09 -7.98,-0.27 -59.82,-0.02 -119.64,-0.03 -179.46,-0.05 -2.63,0.18 -5.27,0.27 -7.91,0.28 65.11,16.93 130.23,16.96 195.35,0.04"
         style="fill:#7a8434;fill-opacity:1;fill-rule:nonzero;stroke:none"
         transform="matrix(0.13333333,0,0,-0.13333333,0,318.21333)" />
      <path
         id="path51"
         d="m 10786.9,1985.78 c -63.7,0.25 -127.5,0.49 -191.2,0.73 63.8,14.58 127.5,16.37 191.2,-0.73"
         style="fill:#7b8430;fill-opacity:1;fill-rule:nonzero;stroke:none"
         transform="matrix(0.13333333,0,0,-0.13333333,0,318.21333)" />
      <path
         id="path52"
         d="m 8706.18,1985.7 c -2.62,-0.01 -5.24,-0.11 -7.86,-0.31 -60.93,0.35 -121.86,0.7 -182.79,1.06 63.61,14.64 127.17,16.12 190.65,-0.75"
         style="fill:#7b8432;fill-opacity:1;fill-rule:nonzero;stroke:none"
         transform="matrix(0.13333333,0,0,-0.13333333,0,318.21333)" />
      <path
         id="path53"
         d="m 10126.2,1984.8 c -55.4,0.14 -110.8,0.28 -166.18,0.42 55.38,17.03 110.78,17.59 166.18,-0.42"
         style="fill:#7b8435;fill-opacity:1;fill-rule:nonzero;stroke:none"
         transform="matrix(0.13333333,0,0,-0.13333333,0,318.21333)" />
      <path
         id="path54"
         d="m 5248.46,914.078 c -0.18,-56.277 -0.35,-112.558 -0.52,-168.828 -14.82,56.32 -15.72,112.602 0.52,168.828"
         style="fill:#7a8430;fill-opacity:1;fill-rule:nonzero;stroke:none"
         transform="matrix(0.13333333,0,0,-0.13333333,0,318.21333)" />
      <path
         id="path55"
         d="m 2802.26,834.051 c -4.82,-12.762 -9.65,-25.531 -14.47,-38.289 -29.75,4.289 -6.63,34.437 -29.2,41.808 21.33,12.282 31.66,0.141 43.67,-3.519"
         style="fill:#fbf9f8;fill-opacity:1;fill-rule:nonzero;stroke:none"
         transform="matrix(0.13333333,0,0,-0.13333333,0,318.21333)" />
      <path
         id="path56"
         d="m 7368.91,1454.71 c 33.5,16.24 66.69,20.32 99.19,-2.55 -32.91,6.69 -66.08,3.42 -99.19,2.55"
         style="fill:#7b8530;fill-opacity:1;fill-rule:nonzero;stroke:none"
         transform="matrix(0.13333333,0,0,-0.13333333,0,318.21333)" />
      <path
         id="path57"
         d="m 5478.97,1464.69 c 29.63,18.24 59.45,16.77 89.41,0.88 -29.8,-0.29 -59.61,-0.59 -89.41,-0.88"
         style="fill:#7b8430;fill-opacity:1;fill-rule:nonzero;stroke:none"
         transform="matrix(0.13333333,0,0,-0.13333333,0,318.21333)" />
      <path
         id="path58"
         d="m 2397.02,983.738 c 13.34,-5.148 26.96,-9.75 39.57,-16.297 1.29,-0.671 -6.12,-9.429 -13.27,-11.062 -21.02,-4.801 -19.95,14.211 -26.3,27.359"
         style="fill:#fbf9f8;fill-opacity:1;fill-rule:nonzero;stroke:none"
         transform="matrix(0.13333333,0,0,-0.13333333,0,318.21333)" />
      <path
         id="path59"
         d="m 1398.67,27.4609 c 0.2,27.0977 0.4,54.1993 0.6,81.3011 13.91,-27.2034 16.29,-54.3206 -0.6,-81.3011"
         style="fill:#7a8330;fill-opacity:1;fill-rule:nonzero;stroke:none"
         transform="matrix(0.13333333,0,0,-0.13333333,0,318.21333)" />
      <path
         id="path60"
         d="m 6498.2,2024.15 c -22.95,-16.09 -48.72,-5.63 -73.17,-7.75 23.08,14.82 48.39,8.8 73.17,7.75"
         style="fill:#7c8630;fill-opacity:1;fill-rule:nonzero;stroke:none"
         transform="matrix(0.13333333,0,0,-0.13333333,0,318.21333)" />
      <path
         id="path61"
         d="m 6508.19,1274.12 c -19.71,-12.73 -39.42,-12.79 -59.12,0.01 19.71,-0.01 39.41,-0.01 59.12,-0.01"
         style="fill:#7c862f;fill-opacity:1;fill-rule:nonzero;stroke:none"
         transform="matrix(0.13333333,0,0,-0.13333333,0,318.21333)" />
      <path
         id="path62"
         d="m 2506.01,714.301 c -9.67,7.711 -6.99,19.597 -10.02,29.551 26.64,-1.973 28.06,-12.473 10.02,-29.551"
         style="fill:#fbf9f8;fill-opacity:1;fill-rule:nonzero;stroke:none"
         transform="matrix(0.13333333,0,0,-0.13333333,0,318.21333)" />
      <path
         id="path63"
         d="m 6572.34,2016.39 c -21.18,1.95 -43.78,-7.74 -63.29,7.76 21.57,1.3 43.61,6.44 63.29,-7.76"
         style="fill:#79862f;fill-opacity:1;fill-rule:nonzero;stroke:none"
         transform="matrix(0.13333333,0,0,-0.13333333,0,318.21333)" />
      <path
         id="path64"
         d="m 7933.74,906.238 c -18.37,1.5 -38.12,-6.547 -54.6,7.942 18.81,1.57 38.03,5.941 54.6,-7.942"
         style="fill:#788535;fill-opacity:1;fill-rule:nonzero;stroke:none"
         transform="matrix(0.13333333,0,0,-0.13333333,0,318.21333)" />
      <path
         id="path65"
         d="m 3990.3,436.051 c -35.16,-209.512 -201.34,-303.852 -396.56,-217.992 -72,31.671 -110.94,99.769 -130.25,177.332 -33.44,134.32 25.81,276.25 139.04,331.23 151.47,73.559 360.24,3.059 387.66,-221.012 5.25,-23.179 5.07,-46.359 0.11,-69.558"
         style="fill:#fbf9f7;fill-opacity:1;fill-rule:nonzero;stroke:none"
         transform="matrix(0.13333333,0,0,-0.13333333,0,318.21333)" />
      <path
         id="path66"
         d="m 3990.3,436.051 c -0.04,23.187 -0.08,46.367 -0.11,69.558 12.87,-23.168 12.7,-46.347 0.11,-69.558"
         style="fill:#7b8430;fill-opacity:1;fill-rule:nonzero;stroke:none"
         transform="matrix(0.13333333,0,0,-0.13333333,0,318.21333)" />
      <path
         id="path67"
         d="m 3259.4,586.168 c -2.52,7.742 -5.74,15.344 -7.31,23.273 -1.11,5.629 0.01,11.707 0.13,17.579 5.01,-3.629 10.02,-7.27 15.02,-10.899 0.89,-10.902 2.39,-21.961 -7.84,-29.953"
         style="fill:#faf9f7;fill-opacity:1;fill-rule:nonzero;stroke:none"
         transform="matrix(0.13333333,0,0,-0.13333333,0,318.21333)" />
      <path
         id="path68"
         d="m 5570.63,1635.77 c -92.07,0 -92.07,0 -92.05,87.96 0.03,109.86 0.03,110.4 112.34,109.36 28.05,-0.25 56.65,-2.57 83.97,-8.6 45.9,-10.14 74.46,-48.16 73.6,-93.38 -0.91,-48.24 -26.3,-74.44 -72.72,-87.19 -36.48,-10.01 -72.65,-6.41 -105.14,-8.15"
         style="fill:#faf9f7;fill-opacity:1;fill-rule:nonzero;stroke:none"
         transform="matrix(0.13333333,0,0,-0.13333333,0,318.21333)" />
      <path
         id="path69"
         d="m 7848.14,747.469 c 85.38,-13.207 116.67,-37.481 120.22,-93.219 3.23,-50.738 -22.71,-86.93 -72.26,-97.449 -57.17,-12.129 -115.38,-8.012 -173.28,-8.973 -25.97,-0.43 -24.36,15.813 -24.3,32.852 0.19,54.699 0.29,109.41 0.42,164.109 49.55,11.211 99.38,6.18 149.2,2.68"
         style="fill:#faf9f7;fill-opacity:1;fill-rule:nonzero;stroke:none"
         transform="matrix(0.13333333,0,0,-0.13333333,0,318.21333)" />
      <path
         id="path70"
         d="m 7848.14,747.469 c -49.74,-0.899 -99.47,-1.789 -149.2,-2.68 49.39,20.191 99.25,13.941 149.2,2.68"
         style="fill:#7b8530;fill-opacity:1;fill-rule:nonzero;stroke:none"
         transform="matrix(0.13333333,0,0,-0.13333333,0,318.21333)" />
      <path
         id="path71"
         d="m 8638.35,747.469 c 35.99,-5.199 73.2,-7.328 100.44,-36.321 26.31,-28 31.23,-60.468 20.22,-96.707 -11.12,-36.621 -39.03,-51.203 -73.15,-58.511 -60.72,-12.989 -122.56,-4.789 -183.71,-9.641 -18.37,62.262 -4.78,125.832 -7.33,188.742 -0.65,16.18 14.15,15.848 25.58,15.449 39.31,-1.359 78.79,3.969 117.95,-3.011"
         style="fill:#f9f8f6;fill-opacity:1;fill-rule:nonzero;stroke:none"
         transform="matrix(0.13333333,0,0,-0.13333333,0,318.21333)" />
      <path
         id="path72"
         d="m 8638.35,747.469 c -37.83,-0.559 -75.67,-1.481 -113.5,-1.5 -16.2,-0.008 -29.71,-0.539 -28.44,-22.68 3.4,-58.937 -6.77,-118.328 5.73,-177 -29.64,36.551 -11.37,79.109 -12.76,118.461 -3.24,91.07 -1.03,91.551 91.62,90.73 19.19,-0.171 39.96,6.641 57.35,-8.011"
         style="fill:#7c8530;fill-opacity:1;fill-rule:nonzero;stroke:none"
         transform="matrix(0.13333333,0,0,-0.13333333,0,318.21333)" />
      <path
         id="path73"
         d="m 7471.7,1825.82 c 26.37,0.77 62.74,1.38 98.28,-9.9 48.91,-15.54 69.9,-44.71 68.65,-95.81 -1.22,-49.59 -29.48,-73.93 -74.98,-84.38 -55.84,-12.82 -112.41,-5.15 -168.59,-7.82 -23.66,-1.12 -27.09,11.23 -26.72,30.64 0.8,41.51 2.73,83.24 -0.53,124.51 -2.81,35.61 9.24,48.04 43.99,43.15 16.29,-2.29 33.16,-0.39 59.9,-0.39"
         style="fill:#faf9f7;fill-opacity:1;fill-rule:nonzero;stroke:none"
         transform="matrix(0.13333333,0,0,-0.13333333,0,318.21333)" />
      <path
         id="path74"
         d="m 9076.34,1731.68 c 0.07,94.16 0.07,93.75 96.43,94.36 38.23,0.24 76.57,1.1 112.61,-13.3 41.47,-16.58 62.59,-49.46 59.83,-93.31 -2.77,-43.98 -27.99,-72.68 -71.9,-83.16 -57.19,-13.64 -115.36,-6.46 -173.12,-8.09 -20.74,-0.58 -24.3,12.02 -24.02,28.94 0.41,24.85 0.1,49.71 0.17,74.56"
         style="fill:#f9f8f6;fill-opacity:1;fill-rule:nonzero;stroke:none"
         transform="matrix(0.13333333,0,0,-0.13333333,0,318.21333)" />
      <path
         id="path75"
         d="m 9456.86,647.73 c 34.13,-88.378 63.7,-166.421 94.52,-243.949 9.78,-24.601 -7.81,-19.859 -19.46,-19.972 -56.38,-0.5 -112.77,-0.219 -175.64,-0.219 33.32,87.512 64.63,169.75 100.58,264.14"
         style="fill:#f7f6f4;fill-opacity:1;fill-rule:nonzero;stroke:none"
         transform="matrix(0.13333333,0,0,-0.13333333,0,318.21333)" />
      <path
         id="path76"
         d="m 4735.28,1734.95 c 36.89,-95.6 69.19,-179.31 102.99,-266.92 -60.63,0 -115.13,0.83 -169.58,-0.33 -29.65,-0.64 -32.72,8.03 -21.77,34.84 29.79,72.96 56.28,147.26 88.36,232.41"
         style="fill:#f8f7f5;fill-opacity:1;fill-rule:nonzero;stroke:none"
         transform="matrix(0.13333333,0,0,-0.13333333,0,318.21333)" />
      <path
         id="path77"
         d="m 10037.3,1727.3 c 36.7,-95.03 68.4,-177.01 101.2,-262.12 -67.7,0 -130.5,0 -201.26,0 32.45,84.99 63.56,166.61 100.06,262.12"
         style="fill:#f7f6f4;fill-opacity:1;fill-rule:nonzero;stroke:none"
         transform="matrix(0.13333333,0,0,-0.13333333,0,318.21333)" />
      <path
         id="path78"
         d="m 3995.57,1625.79 c -86.99,-0.02 -86.99,-0.02 -86.99,80.72 0,4.97 -0.84,10.11 0.13,14.89 7.41,36.75 -21.95,86.3 15.82,109.01 46.67,28.07 192.26,-4.83 221.73,-38.63 43.55,-49.96 20.16,-131.59 -45.21,-153.98 -36.38,-12.46 -74.54,-14.58 -105.48,-12.01"
         style="fill:#faf9f7;fill-opacity:1;fill-rule:nonzero;stroke:none"
         transform="matrix(0.13333333,0,0,-0.13333333,0,318.21333)" />
      <path
         id="path79"
         d="m 2188.98,1116.8 c -0.14,392.86 0.12,785.72 -1.15,1178.58 -0.11,32.75 8.82,41.25 41.31,41.15 379.54,-1.12 759.09,-1.37 1138.63,0.26 38.7,0.17 41.5,-14.9 41.42,-46.25 -1.01,-391.2 -0.84,-782.39 -0.97,-1173.59 -11.55,-9.85 -25.47,-5.84 -38.35,-5.85 -380.82,-0.21 -761.64,-0.21 -1142.46,0 -12.91,0 -26.79,-3.88 -38.43,5.7"
         style="fill:#fbf9f7;fill-opacity:1;fill-rule:nonzero;stroke:none"
         transform="matrix(0.13333333,0,0,-0.13333333,0,318.21333)" />
      <path
         id="path80"
         d="m 2188.98,1116.8 c 406.41,0.05 812.83,0.1 1219.24,0.15 -13.83,-18.13 -33.7,-10.82 -50.96,-10.84 -372.41,-0.41 -744.81,-0.41 -1117.22,0 -17.28,0.02 -37.11,-7.22 -51.06,10.69"
         style="fill:#7b8430;fill-opacity:1;fill-rule:nonzero;stroke:none"
         transform="matrix(0.13333333,0,0,-0.13333333,0,318.21333)" />
      <path
         id="path81"
         d="M 328.047,827.371 C 463.879,805.699 573.516,744.762 625.25,611.02 703.684,408.25 607.633,168.891 371.473,124.879 c -14.586,-2.719 -28.856,-7.129 -43.274,-10.75 -67.804,-7.051 -135.847,-0.481 -203.679,-3.59 -29.5161,-1.348 -31.2192,14.699 -31.0591,37.191 0.6329,89.61 -0.2148,179.231 0.3711,268.84 0.8907,136.02 -2.8047,272.059 2.0078,408.051 77.2732,11.41 154.7462,6.66 232.2072,2.75"
         style="fill:#fbf9f7;fill-opacity:1;fill-rule:nonzero;stroke:none"
         transform="matrix(0.13333333,0,0,-0.13333333,0,318.21333)" />
      <path
         id="path82"
         d="m 98.6914,825.82 c -0.0351,-222.242 0.918,-444.5 -1.0625,-666.718 -0.3359,-37.704 9.6051,-48.301 46.7261,-46.301 61.129,3.301 122.547,1.168 183.844,1.328 -71.957,-18.7774 -145.125,-4.57 -217.66,-7.719 -17.2968,-0.75 -21.7929,12.309 -21.7695,27.11 0.3828,229.89 0.7657,459.781 1.5664,689.671 0.0118,4.079 5.1329,8.137 7.8711,12.207 3.762,-1.949 5.082,-4.007 3.977,-6.199 -1.129,-2.25 -2.2895,-3.379 -3.4926,-3.379"
         style="fill:#7d8430;fill-opacity:1;fill-rule:nonzero;stroke:none"
         transform="matrix(0.13333333,0,0,-0.13333333,0,318.21333)" />
      <path
         id="path83"
         d="m 98.6914,825.82 c -0.2383,3.192 -0.3984,6.391 -0.4805,9.578 76.5941,-3.136 153.8011,11.071 229.8401,-8.027 -76.457,-0.512 -152.906,-1.031 -229.3596,-1.551"
         style="fill:#798536;fill-opacity:1;fill-rule:nonzero;stroke:none"
         transform="matrix(0.13333333,0,0,-0.13333333,0,318.21333)" />
      <path
         id="path84"
         d="m 2450.23,1605.46 c -8.29,181.25 46,340.24 172.91,471.14 84.68,87.34 186.35,134.76 310.02,101.46 127.36,-34.29 188.87,-134.32 212.75,-252.11 45.48,-224.41 -8.19,-425.05 -175.49,-587.9 -117.15,-114.04 -279.32,-129.17 -391.42,-34.24 -75.04,63.56 -114.04,148.85 -120.95,247.76 -8.92,17.05 0.22,36.72 -7.82,53.89"
         style="fill:#8c9529;fill-opacity:1;fill-rule:nonzero;stroke:none"
         transform="matrix(0.13333333,0,0,-0.13333333,0,318.21333)" />
      <path
         id="path85"
         d="m 2450.23,1605.46 c 14.44,-16.23 6.49,-35.71 7.81,-53.87 -11.81,16.61 -9.82,35.24 -7.81,53.87"
         style="fill:#798530;fill-opacity:1;fill-rule:nonzero;stroke:none"
         transform="matrix(0.13333333,0,0,-0.13333333,0,318.21333)" />
    </g>
  </g>
</svg>
