<?xml version="1.0" encoding="UTF-8" standalone="no"?>
<!-- Created with Inkscape (http://www.inkscape.org/) -->

<svg
   version="1.1"
   id="svg1"
   width="1486.36"
   height="317.67999"
   viewBox="0 0 1486.36 317.67999"
   sodipodi:docname="parc rural negro.eps"
   xmlns:inkscape="http://www.inkscape.org/namespaces/inkscape"
   xmlns:sodipodi="http://sodipodi.sourceforge.net/DTD/sodipodi-0.dtd"
   xmlns="http://www.w3.org/2000/svg"
   xmlns:svg="http://www.w3.org/2000/svg">
  <defs
     id="defs1" />
  <sodipodi:namedview
     id="namedview1"
     pagecolor="#ffffff"
     bordercolor="#000000"
     borderopacity="0.25"
     inkscape:showpageshadow="2"
     inkscape:pageopacity="0.0"
     inkscape:pagecheckerboard="0"
     inkscape:deskcolor="#d1d1d1">
    <inkscape:page
       x="0"
       y="0"
       inkscape:label="1"
       id="page1"
       width="1486.36"
       height="317.67999"
       margin="0"
       bleed="0" />
  </sodipodi:namedview>
  <g
     id="g1"
     inkscape:groupmode="layer"
     inkscape:label="1">
    <g
       id="group-R5">
      <path
         id="path2"
         d="m 2332.31,666.121 c 0,-123.019 0,-246.031 0,-369.039 0,-79.992 -1.21,-160.012 0.64,-239.9609 0.67,-28.8125 -8.42,-37.4492 -36.63,-35.9219 -41.54,2.25 -83.34,1.8203 -124.93,0.1094 -24.76,-1.0195 -34.63,4.5312 -34.52,32.3633 1.06,274.9571 0.99,549.9301 0.07,824.8981 -0.08,25.95 6.36,34.461 33.13,33.809 73.28,-1.77 146.72,-2.688 219.92,0.34 32.69,1.351 45.96,-10.09 55.89,-39.68 54.23,-161.648 110.33,-322.668 165.95,-483.859 5.29,-15.34 11.73,-30.289 20.1,-51.731 63.12,181.442 125.15,356.11 183.93,531.86 11.6,34.691 27.81,44.679 62.73,43.293 69.88,-2.793 140.02,-2.614 209.91,-0.012 31.96,1.191 38.13,-9.34 38,-39.309 -1.19,-269.961 -1.14,-539.929 -0.08,-809.9021 0.12,-30.5586 -4.72,-45.3086 -39.82,-42.3672 -39.72,3.3203 -80.14,3.3086 -119.86,0 -35.05,-2.9219 -40.07,11.7188 -39.87,42.3477 1.27,186.6286 0.64,373.2816 0.63,559.9296 0,15.973 0,31.949 0,47.922 -2.55,0.449 -5.1,0.891 -7.66,1.328 -50.97,-151.508 -101.99,-303.008 -152.9,-454.551 -18.48,-55 -37.7,-109.777 -54.59,-165.2692 -6.72,-22.0586 -16,-31.0274 -40.85,-31.7071 -119.94,-3.2734 -118.71,-3.832 -155.49,111.9293 -56.52,177.93 -114.89,355.27 -172.47,532.86 -3.74,0.097 -7.49,0.211 -11.23,0.32"
         style="fill:#141113;fill-opacity:1;fill-rule:nonzero;stroke:none"
         transform="matrix(0.13333333,0,0,-0.13333333,0,317.68)" />
      <path
         id="path3"
         d="m 4515.81,631.602 c 0,-150.942 0,-301.883 0,-452.821 0,-39.98 -2.41,-80.1404 0.75,-119.8708 2.59,-32.6016 -9.95,-39.3907 -39.42,-37.6914 -51.25,2.9726 -118.78,-16.80864 -149.63,8.8398 -32.06,26.6719 -9.36,96.6604 -9.58,147.6014 -0.97,228.18 0.9,456.391 -1.6,684.539 -0.47,43.11 11.9,53.442 52.36,50.449 49.7,-3.679 100.42,-5.5 149.69,0.391 51.61,6.172 75.72,-17.199 99.6,-58.23 99.34,-170.661 201.85,-339.477 303.24,-508.95 6.43,-10.75 13.28,-21.257 26.57,-42.468 1.51,27.558 3.08,43.078 3.1,58.597 0.18,168.231 1.44,336.473 -0.89,504.66 -0.54,38.391 10.23,48.883 47.2,45.864 47.78,-3.903 112.69,16.078 139.64,-8.203 31.04,-27.957 9.14,-93.778 9.36,-143.039 1.02,-231.508 -0.53,-463.04 1.45,-694.5317 0.32,-37.6289 -8.91,-48.1094 -46.25,-45.8789 -58.09,3.4726 -116.62,2.7304 -174.8,0.1211 -27.5,-1.2305 -40.35,9.3593 -53.66,31.7578 -115.23,193.8127 -231.85,386.8007 -348.05,580.0427 -3.03,-0.402 -6.06,-0.793 -9.08,-1.179"
         style="fill:#141113;fill-opacity:1;fill-rule:nonzero;stroke:none"
         transform="matrix(0.13333333,0,0,-0.13333333,0,317.68)" />
      <path
         id="path4"
         d="M 3718.48,0.0585938 C 3436.79,0.960938 3250.48,188.109 3251,469.68 c 0.52,278.91 190.39,464.961 473.36,463.8 280.53,-1.148 470.32,-191.589 467.95,-469.582 C 4189.92,184.262 4000.85,-0.828125 3718.48,0.0585938"
         style="fill:#141113;fill-opacity:1;fill-rule:nonzero;stroke:none"
         transform="matrix(0.13333333,0,0,-0.13333333,0,317.68)" />
      <path
         id="path5"
         d="m 8202.99,21.7813 c -74.43,0 -139.39,1.457 -204.21,-0.7422 -24.86,-0.8477 -33.83,10.1406 -43.67,29.8398 -48.88,97.8121 -99.38,194.8011 -149.32,292.0701 -14.03,27.321 -78.61,47.801 -101.89,31.539 -13.23,-9.238 -6.89,-24.359 -6.96,-36.718 -0.53,-91.579 -1.42,-183.18 0.36,-274.7192 0.59,-30.4297 -4.39,-45.2695 -39.59,-42.0625 -37.98,3.4609 -76.63,2.5625 -114.78,0.2305 -30.8,-1.8868 -43,4.9218 -42.79,39.8906 1.57,269.7226 1.3,539.4606 0.26,809.1916 -0.12,30.91 5.38,43.929 40.39,42.23 137.79,-6.679 276.6,12.18 413.58,-11.562 97.25,-16.86 176.48,-63.348 202.11,-166.879 25.4,-102.602 21.55,-201.281 -60.79,-282.121 -23.18,-22.77 -50.41,-40.707 -80.86,-46.86 -33.79,-6.828 -25.05,-19.339 -13.51,-38.75 58.46,-98.347 116.4,-197 174.41,-295.6207 8.08,-13.7266 15.52,-27.8281 27.26,-48.957"
         style="fill:#141113;fill-opacity:1;fill-rule:nonzero;stroke:none"
         transform="matrix(0.13333333,0,0,-0.13333333,0,317.68)" />
      <path
         id="path6"
         d="m 5764.21,1481.86 c 73.64,-125.2 143.95,-244.73 218.69,-371.81 -77.37,0 -146.54,0.65 -215.69,-0.34 -25.33,-0.36 -28.21,19.69 -36.04,34.82 -48.71,94.11 -96.74,188.57 -145.1,282.86 -15.03,29.29 -73.66,49.37 -100.66,34.48 -15.51,-8.56 -8.32,-23.69 -8.4,-35.68 -0.64,-91.63 -1.53,-183.29 0.3,-274.89 0.61,-30.73 -4.99,-45.61 -39.86,-41.79 -50.65,5.55 -118.84,-21.39 -147.74,11.15 -25.23,28.4 -8.46,94.97 -8.54,144.68 -0.38,228.25 0.63,456.5 -0.95,684.74 -0.25,36.03 6.9,49.74 46.16,48.23 124.74,-4.79 249.95,6.29 374.46,-5.77 233.54,-22.64 281.45,-207.81 230.55,-369.54 -24.4,-77.53 -84.59,-120.31 -167.18,-141.14"
         style="fill:#141113;fill-opacity:1;fill-rule:nonzero;stroke:none"
         transform="matrix(0.13333333,0,0,-0.13333333,0,317.68)" />
      <path
         id="path7"
         d="m 9578.55,1101.77 c -68.76,0 -130.43,1.81 -191.91,-0.75 -31.14,-1.3 -47.26,9.46 -60.89,37.15 -47.53,96.59 -97.6,191.92 -147.16,287.51 -11.6,22.38 -80.6,38.96 -99.48,24.37 -12.83,-9.93 -6.39,-24.71 -6.47,-37.1 -0.61,-91.56 -1.19,-183.14 0.2,-274.68 0.41,-26.96 -5.41,-38.9 -35.35,-37.1 -51.25,3.08 -118.58,-16.98 -149.75,8.56 -32.45,26.58 -9.56,96.54 -9.78,147.41 -1.04,229.74 0.19,459.49 -1.17,689.22 -0.2,33.52 6.54,46.98 43.26,45.28 134.47,-6.21 269.75,10.68 403.64,-10.41 99.83,-15.72 180.4,-62.9 209.13,-166.27 28.47,-102.47 20.66,-200.91 -59.02,-282.64 -21.42,-21.97 -47.36,-39.42 -75.97,-45.54 -41.1,-8.79 -30.83,-25.32 -15.97,-50.03 61.5,-102.22 121.89,-205.11 182.6,-307.81 4.02,-6.79 7.3,-14.01 14.09,-27.17"
         style="fill:#141113;fill-opacity:1;fill-rule:nonzero;stroke:none"
         transform="matrix(0.13333333,0,0,-0.13333333,0,317.68)" />
      <path
         id="path8"
         d="m 9000.4,21.7813 c -72.13,0 -135.49,1.8281 -198.66,-0.8399 -28.21,-1.1914 -41.9,9.7578 -53.45,33.0078 -47.2,94.9808 -95.35,189.4998 -143.62,283.9488 -17.26,33.774 -66.61,51.09 -100,37.172 -20.21,-8.422 -11.8,-25.511 -11.92,-38.679 -0.82,-89.942 -2.69,-179.969 0.6,-269.7894 1.44,-39.1524 -11.24,-48.6133 -47.56,-45.543 -38.04,3.2109 -76.63,2.1211 -114.84,0.2227 -25.42,-1.2618 -34.16,5.5898 -34.06,32.8007 1.02,274.828 0.59,549.668 0.69,824.5 0,15.777 -5.5,34.457 22.47,33.406 142.9,-5.347 286.56,12.203 428.79,-10.437 197.64,-31.469 288.57,-262.571 167.96,-423.313 -23.56,-31.398 -53.24,-57.418 -90.83,-66.59 -48.2,-11.769 -38.67,-31.41 -19.22,-63.289 64.53,-105.777 126.6,-213.05 193.65,-326.5777"
         style="fill:#141113;fill-opacity:1;fill-rule:nonzero;stroke:none"
         transform="matrix(0.13333333,0,0,-0.13333333,0,317.68)" />
      <path
         id="path9"
         d="m 7655.42,1474.03 c 73.33,-124.6 143.81,-244.38 219.03,-372.23 -77.01,0 -147.41,0.62 -217.79,-0.34 -23.4,-0.32 -24.64,18.01 -31.74,31.72 -49.56,95.71 -98.9,191.55 -148.31,287.35 -13.58,26.35 -76.67,46.02 -101.66,31.2 -14.86,-8.81 -7.88,-23.97 -7.96,-36.12 -0.62,-89.99 -1.85,-180.02 0.45,-269.96 0.85,-33.15 -4.95,-48.77 -42.2,-44.44 -49.06,5.7 -115.25,-20.73 -143.21,10.58 -24.24,27.13 -6.93,91.88 -6.98,140.01 -0.22,231.65 0.55,463.3 -0.83,694.93 -0.2,33.31 5.94,46.68 42.79,44.95 134.62,-6.31 269.94,9.96 404.14,-10.21 113.44,-17.06 191.18,-87.13 213.08,-188.57 25.01,-115.82 -11.66,-226.76 -92.12,-281.94 -24.97,-17.13 -53.19,-25.78 -86.69,-36.93"
         style="fill:#141113;fill-opacity:1;fill-rule:nonzero;stroke:none"
         transform="matrix(0.13333333,0,0,-0.13333333,0,317.68)" />
      <path
         id="path10"
         d="m 6736.66,467.73 c 0,133.282 1.04,266.571 -0.75,399.821 -0.43,32.5 4.15,45.73 41.72,45.219 169.9,-2.29 339.85,-1.75 509.77,-0.329 31.13,0.27 44.79,-5.722 41.7,-40.121 -3.27,-36.359 -2.48,-73.351 -0.17,-109.851 1.73,-27.188 -8.3,-33.289 -33.89,-32.957 -104.94,1.328 -209.97,-1.653 -314.83,1.609 -41.52,1.289 -49.3,-13.172 -48.73,-50.762 1.7,-112.91 0.24,-112.937 114.9,-112.929 74.96,0 149.96,-1.258 224.89,0.64 28.74,0.731 37.56,-8.269 35.92,-36.55 -2.78,-47.95 15.91,-110.77 -7.93,-140.129 -25.02,-30.801 -90.31,-7.86 -137.94,-9.192 -61.59,-1.73 -123.34,-2.23 -184.88,0.301 -32.94,1.359 -49.58,-4.738 -44.59,-42.18 5.86,-43.929 -18.97,-101.019 10.52,-129.261 26.84,-25.688 82.57,-6.668 125.53,-7.258 81.61,-1.11 163.28,-1.512 244.88,0.32 29.34,0.66 42.74,-5.25 40.14,-37.992 -3.67,-46.149 14.17,-106.9376 -9.1,-135.0587 -24.38,-29.44921 -87.31,-8.4805 -133.29,-8.8711 -141.6,-1.1679 -283.26,1.6328 -424.79,-1.6484 -43.57,-1.0117 -50.88,12.5586 -50.08,52.3594 2.65,131.5588 1,263.2108 1,394.8198"
         style="fill:#141113;fill-opacity:1;fill-rule:nonzero;stroke:none"
         transform="matrix(0.13333333,0,0,-0.13333333,0,317.68)" />
      <path
         id="path11"
         d="m 7967.5,1691.09 c 0.01,86.6 1,173.21 -0.55,259.79 -0.51,28.6 4.46,42.99 37.67,40.71 51.22,-3.51 117.97,16.41 149.97,-9.04 33.84,-26.9 10.06,-96.5 10.69,-147.32 1.59,-129.88 0.13,-259.79 0.66,-389.68 0.41,-102.09 71.3,-180.65 164.51,-183.77 94.97,-3.17 173,67.42 176.1,170.98 5.07,169.67 4.54,339.55 3.53,509.32 -0.24,38.82 9.2,54.38 49.47,49.32 47.25,-5.93 110.8,20.81 138.1,-10.99 23.4,-27.27 7.84,-88.73 8,-135.07 0.46,-138.22 1.2,-276.45 -0.09,-414.66 -1.42,-153.03 -78.61,-272.9 -205.78,-323.9 -150.07,-60.19 -338.46,-28.6 -437.27,74.42 -68.19,71.1 -92.01,159.93 -94.53,255.11 -2.25,84.87 -0.48,169.85 -0.48,254.78"
         style="fill:#141113;fill-opacity:1;fill-rule:nonzero;stroke:none"
         transform="matrix(0.13333333,0,0,-0.13333333,0,317.68)" />
      <path
         id="path12"
         d="m 9920.83,21.7813 c -69.95,0 -132.98,1.207 -195.93,-0.6797 -21.15,-0.6328 -29.17,9.0273 -35.53,25.4297 -17.35,44.7187 -36.23,88.8907 -51.9,134.1797 -7.77,22.5 -19.19,30.277 -43.09,29.918 -91.55,-1.391 -183.15,-1.481 -274.7,0.07 -22.74,0.391 -32.76,-8.508 -39.85,-27.801 -16,-43.457 -34.37,-86.0894 -49.15,-129.9488 -7.34,-21.789 -16.22,-32.6484 -41.57,-31.8086 -59.76,1.9883 -119.63,0.6407 -186.18,0.6407 48.77,114.6407 95.94,225.1407 142.8,335.7577 73.55,173.633 147.43,347.121 219.71,521.281 10.33,24.891 21.95,33.93 49.97,33.828 124.65,-0.429 124.98,0.864 175.01,-116.187 109.15,-255.352 217.92,-510.852 330.41,-774.6797"
         style="fill:#141113;fill-opacity:1;fill-rule:nonzero;stroke:none"
         transform="matrix(0.13333333,0,0,-0.13333333,0,317.68)" />
      <path
         id="path13"
         d="m 4283.58,1112.26 c 45.75,108.96 89.57,213.9 133.85,318.65 74.06,175.23 148.92,350.12 222.17,525.68 12.21,29.27 26.05,42.72 61.27,42 119.5,-2.46 119.27,-0.7 165.6,-109.43 101.82,-238.92 203.98,-477.69 305.86,-716.59 8.27,-19.4 15.38,-39.31 24.4,-62.5 -67.14,0 -130.28,0.87 -193.37,-0.5 -20.63,-0.46 -29.68,8.51 -36.26,25.86 -15.87,41.78 -34.18,82.69 -48.59,124.94 -8.63,25.32 -20.11,37.17 -49.23,36.49 -88.2,-2.03 -176.51,-1.94 -264.72,-0.07 -28.67,0.61 -40.16,-10.43 -49.27,-36.1 -17.63,-49.67 -26.76,-114.87 -63.06,-142.02 -39.19,-29.31 -105.81,-6.47 -160.42,-8.43 -14.37,-0.52 -28.81,1.13 -48.23,2.02"
         style="fill:#141113;fill-opacity:1;fill-rule:nonzero;stroke:none"
         transform="matrix(0.13333333,0,0,-0.13333333,0,317.68)" />
      <path
         id="path14"
         d="m 9584.14,1101.79 c 76.69,181.88 150.96,358.46 225.59,534.89 45.12,106.64 91.58,212.74 135.62,319.82 10.1,24.55 21.16,35.18 49.78,35.29 124.67,0.47 124.87,1.75 173.57,-112.2 107.2,-251.06 214.1,-502.25 321.1,-753.38 2.4,-5.77 4.9,-11.54 10.3,-24.42 -70.6,0 -136.2,1.11 -201.7,-0.62 -21.6,-0.58 -23.9,14.49 -29.3,26.85 -14.5,33.34 -32.7,66.35 -39.6,101.43 -10.8,54.84 -42,64.24 -91.6,61.66 -76.4,-3.97 -153.16,-2.72 -229.68,-0.19 -28.85,0.96 -41.68,-9.81 -50.49,-34.8 -14.85,-42.14 -32.43,-83.32 -47.47,-125.4 -5.99,-16.78 -10.93,-29.74 -33.07,-29.33 -62.61,1.15 -125.26,0.4 -193.05,0.4"
         style="fill:#141113;fill-opacity:1;fill-rule:nonzero;stroke:none"
         transform="matrix(0.13333333,0,0,-0.13333333,0,317.68)" />
      <path
         id="path15"
         d="m 3710.99,1555.05 c -0.01,131.62 1.22,263.25 -0.81,394.83 -0.55,35.79 6.47,50.08 46.02,48.42 121.38,-5.09 243.16,5.72 364.45,-5.84 210.06,-20.02 317.43,-225.18 215.62,-411.62 -40.09,-73.41 -108.38,-104.84 -186.52,-118.54 -44.24,-7.76 -89.03,-10.52 -134.21,-10.05 -108.88,1.14 -108.88,0.38 -108.88,-110.99 0,-63.31 -1.48,-126.67 0.63,-189.91 1.02,-30.61 -4.68,-45.68 -39.72,-41.85 -50.67,5.53 -117.12,-21.06 -148.47,10.84 -28.96,29.47 -7.22,95.14 -7.78,144.83 -1.09,96.62 -0.32,193.26 -0.33,289.88"
         style="fill:#141113;fill-opacity:1;fill-rule:nonzero;stroke:none"
         transform="matrix(0.13333333,0,0,-0.13333333,0,317.68)" />
      <path
         id="path16"
         d="M 6252.56,0.300781 C 6155.98,-3.28906 6069.77,25.9688 5991.65,81.8203 c -25.69,18.3597 -35.87,34.5507 -7.63,61.6207 32.31,30.981 61.4,65.59 89.73,100.368 16.98,20.863 27.13,19.32 46.08,0.89 59.38,-57.777 129.8,-78.89 210.07,-49.929 34.36,12.402 61.48,35 64.58,74.742 2.93,37.597 -18.85,61.879 -49.26,80.109 -33.06,19.809 -70.02,29.649 -105.93,42.207 -26.55,9.293 -52.98,18.942 -79.46,28.434 -96.25,34.468 -164.77,93.699 -172,202.5 -7.77,116.84 37.8,210.687 142.11,264.109 145.41,74.469 290.88,64.801 430.42,-22.18 25.1,-15.64 32.82,-29.621 5.73,-51.32 -14.05,-11.242 -24.17,-27.32 -36.41,-40.902 -21.14,-23.449 -38.84,-52.949 -64.84,-68.328 -30.23,-17.879 -45.86,24.468 -73.13,32.558 -51.5,15.289 -99.97,21.492 -149.55,-3.519 -66.59,-33.578 -71.71,-99.032 -10.45,-140.981 29.21,-20 63.71,-27.5 96.31,-39.347 20.15,-7.321 40.98,-12.75 61.36,-19.473 151.73,-50.09 204.22,-119.457 198.91,-262.641 C 6583.52,141.98 6500.56,45.5 6366.16,12.1211 6328.81,2.85156 6290.93,-0.820313 6252.56,0.300781"
         style="fill:#141113;fill-opacity:1;fill-rule:nonzero;stroke:none"
         transform="matrix(0.13333333,0,0,-0.13333333,0,317.68)" />
      <path
         id="path17"
         d="m 6234.44,1555.28 c -3.05,-124.4 63.69,-234.41 163.67,-272.15 85.94,-32.44 178.92,-10.82 240.24,59.96 16.34,18.87 24.19,19.16 42.16,4.23 35.75,-29.7 72.45,-58.65 111.25,-84.14 28.73,-18.88 21.62,-31.83 2.77,-52.63 -107.38,-118.48 -244.46,-141.09 -392.16,-116.7 -223.06,36.83 -365.41,210.45 -371.38,444.39 -6.06,237.64 123.16,416.35 342.11,467.81 138.73,32.6 270.43,19.48 385.82,-74.53 31.1,-25.34 49.98,-48.75 0.93,-74.87 -10.01,-5.33 -18.02,-14.68 -26.43,-22.72 -45.83,-43.83 -79.88,-68.87 -153.56,-22.33 -139.16,87.91 -328.98,-36.35 -343.29,-211.67 -1.21,-14.84 -1.44,-29.76 -2.13,-44.65"
         style="fill:#141113;fill-opacity:1;fill-rule:nonzero;stroke:none"
         transform="matrix(0.13333333,0,0,-0.13333333,0,317.68)" />
      <path
         id="path18"
         d="m 10057.5,376.59 c 0,106.539 -1.4,213.121 0.8,319.621 0.7,33.527 -9.7,42.019 -41.6,40.609 -56.52,-2.511 -113.25,0.7 -169.79,-1.25 -29.01,-1 -38.43,9.43 -36.24,37.36 3.5,44.5 -17.68,101.332 8.2,130.39 24.18,27.141 81.58,7.828 124.26,8.071 171.47,0.929 342.97,-0.403 514.37,1.07 32.5,0.277 49.8,-4.41 45.3,-42.18 -5,-42.5 17.6,-97.769 -9,-125.07 -26.7,-27.512 -82,-8.191 -124.7,-8.672 -113.3,-1.258 -113.3,-0.43 -113.3,-112.68 0,-186.461 -1,-372.918 0.9,-559.3473 0.4,-35.2812 -8.8,-46.9414 -43.9,-43.2422 -50.6,5.3399 -118.8,-21.410125 -147.6,10.9805 -25.1,28.2188 -7.3,94.891 -7.6,144.57 -0.4,66.59 -0.1,133.18 -0.1,199.77"
         style="fill:#141113;fill-opacity:1;fill-rule:nonzero;stroke:none"
         transform="matrix(0.13333333,0,0,-0.13333333,0,317.68)" />
      <path
         id="path19"
         d="m 5487.5,381.262 c -0.01,106.539 -0.97,213.097 0.64,319.617 0.43,28.449 -7.79,36.922 -36.15,35.871 -58.18,-2.148 -116.54,0.531 -174.75,-1.148 -28.72,-0.821 -43.51,5.277 -40.24,38.187 4.4,44.27 -17.65,101.32 8.41,129.902 24.33,26.688 81.73,7.5 124.49,7.719 171.46,0.879 342.94,-0.5 514.39,1.11 32.78,0.312 48.63,-4.411 44.81,-42.032 -4.33,-42.75 13.01,-99.398 -8.64,-125.5 -22.86,-27.566 -81.35,-8.058 -124.2,-8.488 -113.94,-1.148 -113.94,-0.391 -113.94,-113.301 0,-184.789 -0.83,-369.578 0.73,-554.3474 0.3,-34.6211 -4.37,-52.7618 -44.94,-47.7227 -48.88,6.0625 -114.89,-20.488275 -142.89,10.7617 -24.27,27.0977 -7.27,91.6214 -7.6,139.6094 -0.47,69.922 -0.12,139.84 -0.12,209.762"
         style="fill:#141113;fill-opacity:1;fill-rule:nonzero;stroke:none"
         transform="matrix(0.13333333,0,0,-0.13333333,0,317.68)" />
      <path
         id="path20"
         d="m 2796.49,2381.77 c 206.55,0 413.11,-0.69 619.66,0.73 31.83,0.22 41.41,-7.02 41.31,-40.4 -1.23,-414.78 -1.17,-829.56 -0.07,-1244.33 0.09,-30.84 -7.57,-38.54 -38.4,-38.46 -414.78,1.1 -829.56,1.07 -1244.33,0.04 -30.22,-0.07 -38.86,6.67 -38.77,38.08 1.16,414.78 1.17,829.55 0,1244.33 -0.09,32.74 8.47,41.03 40.94,40.79 206.54,-1.53 413.1,-0.78 619.66,-0.78"
         style="fill:#141113;fill-opacity:1;fill-rule:nonzero;stroke:none"
         transform="matrix(0.13333333,0,0,-0.13333333,0,317.68)" />
      <path
         id="path21"
         d="m 0.988281,468.27 c 0,134.941 -0.25,269.871 0.335939,404.8 0.07031,15.809 -9.58594,40.211 22.22658,38.649 C 159.359,905.059 296.785,929.289 430.949,891.77 601.145,844.172 768.984,695.66 748.309,417.691 734.16,227.488 584.242,63.8789 384.5,30.9492 265.32,11.3008 145.152,26.7617 25.5664,21.5313 -5.46875,20.1719 1.16016,41.4609 1.12891,58.4688 0.878906,195.07 0.988281,331.672 0.988281,468.27"
         style="fill:#141113;fill-opacity:1;fill-rule:nonzero;stroke:none"
         transform="matrix(0.13333333,0,0,-0.13333333,0,317.68)" />
      <path
         id="path22"
         d="m 10591,1543.68 c 0,133.2 1,266.42 -0.7,399.6 -0.5,34.68 4.9,53.11 45.4,48.25 49,-5.87 115,20.59 143,-10.43 24.4,-26.92 7.7,-91.62 7.8,-139.62 0.4,-171.5 1.1,-343.01 -0.7,-514.49 -0.3,-34.25 7.6,-45.46 43.4,-44.4 91.5,2.7 183.2,-0.4 274.7,1.62 31,0.69 41.6,-8.34 38.9,-39.22 -4.2,-46.07 18.4,-105.51 -8.9,-135 -25.2,-27.24 -84.9,-7.5 -129.3,-7.87 -121.6,-1.01 -243.2,1.11 -364.7,-1.22 -37.7,-0.72 -50.9,7.39 -50,48.19 2.9,131.48 1.1,263.05 1.1,394.59"
         style="fill:#141113;fill-opacity:1;fill-rule:nonzero;stroke:none"
         transform="matrix(0.13333333,0,0,-0.13333333,0,317.68)" />
      <path
         id="path23"
         d="m 846.652,470.422 c 0,133.219 0.743,266.437 -0.57,399.637 -0.293,29.601 3.148,43.242 39.012,42.711 154.826,-2.321 309.726,-2.258 464.546,-0.032 35.34,0.524 40.76,-12.347 39.43,-42.437 -1.2,-26.992 0.91,-46.18 -38.25,-45.262 -123.16,2.902 -246.47,-0.809 -369.617,2.16 -39.035,0.949 -46.836,-11.078 -45.39,-47.07 2.867,-71.488 2.433,-143.219 0.105,-214.75 -1,-30.598 7.246,-39.25 38.34,-38.707 113.192,1.976 226.462,-0.391 339.662,1.5 33.4,0.558 46.24,-6.57 45.84,-43.141 -0.36,-33.832 -7.32,-44.98 -43.29,-44.191 -114.84,2.512 -229.78,0.019 -344.657,1.582 -28.137,0.379 -36.407,-7.293 -35.821,-35.672 1.828,-88.219 1.918,-176.52 -0.019,-264.73 -0.645,-29.329 9.101,-35.5 36.605,-35.2 129.872,1.391 259.772,-0.55 389.632,1.391 34.81,0.519 44.44,-9.4102 45.03,-44.379 0.62,-36.3828 -11.05,-43.2617 -44.91,-42.8711 -158.17,1.8282 -316.39,2.1602 -474.545,-0.1796 -37.281,-0.5508 -42.34,12.2578 -41.894,45.0195 1.828,134.8472 0.761,269.7502 0.761,404.6212"
         style="fill:#141113;fill-opacity:1;fill-rule:nonzero;stroke:none"
         transform="matrix(0.13333333,0,0,-0.13333333,0,317.68)" />
      <path
         id="path24"
         d="m 1530.92,466.629 c 0,134.859 1.61,269.762 -1.01,404.57 -0.76,38.949 15.33,41.75 46.59,41.563 30.7,-0.172 47.25,-1.801 46.9,-41.223 -2.04,-233.078 -1.39,-466.18 -0.81,-699.277 0.19,-75.18 -11.1,-64.043 66.99,-64.582 99.89,-0.692 199.84,-1.942 299.67,0.789 36.14,0.98 40.77,-13.6995 39.87,-43.5979 -0.81,-27 1.11,-45.0625 -37.72,-44.2695 -139.8,2.8672 -279.71,2.1797 -419.54,0.3476 -32.58,-0.4297 -42.18,7.9805 -41.72,41.1094 1.87,134.8324 0.78,269.7114 0.78,404.5704"
         style="fill:#161315;fill-opacity:1;fill-rule:nonzero;stroke:none"
         transform="matrix(0.13333333,0,0,-0.13333333,0,317.68)" />
      <path
         id="path25"
         d="m 3987.48,466.84 c -0.01,-168.531 -109.02,-285.168 -266.41,-285.059 -155.86,0.117 -268.51,119.52 -268.69,284.821 -0.18,165.07 112.95,285.218 268.51,285.16 157.54,-0.063 266.6,-116.633 266.59,-284.922"
         style="fill:#ffffff;fill-opacity:1;fill-rule:nonzero;stroke:none"
         transform="matrix(0.13333333,0,0,-0.13333333,0,317.68)" />
      <path
         id="path26"
         d="m 7696.65,644.359 c 0,98.34 0,98.621 101.22,98.121 34.63,-0.179 69.24,2 103.32,-9.871 47.52,-16.539 68.6,-48.507 65.83,-97.961 -2.75,-49.238 -31.63,-73.117 -77.08,-83.207 -55.85,-12.402 -112.36,-5.863 -168.55,-8.242 -20.45,-0.867 -25.71,8.063 -24.98,26.481 0.99,24.859 0.25,49.781 0.24,74.679"
         style="fill:#fefefe;fill-opacity:1;fill-rule:nonzero;stroke:none"
         transform="matrix(0.13333333,0,0,-0.13333333,0,317.68)" />
      <path
         id="path27"
         d="m 5476.66,1735.74 c -0.01,94.33 -0.01,93.96 96.68,94.52 35.05,0.2 70.39,1.34 103.85,-9.72 43.12,-14.25 69.88,-42.36 69.75,-91.47 -0.14,-48.86 -23.8,-77.03 -70.17,-89.19 -60.85,-15.95 -122.67,-4.67 -183.95,-7.96 -18.12,-0.97 -16.1,12.37 -16.13,23.87 -0.07,26.65 -0.03,53.3 -0.03,79.95"
         style="fill:#fefefe;fill-opacity:1;fill-rule:nonzero;stroke:none"
         transform="matrix(0.13333333,0,0,-0.13333333,0,317.68)" />
      <path
         id="path28"
         d="m 9072.29,1722.26 c 0.02,99.52 0.02,99.59 100.89,99.49 34.84,-0.04 69.63,1.85 103.72,-9.86 45.24,-15.53 68.76,-47.23 67.3,-93.55 -1.46,-46.56 -27.17,-76.06 -74.06,-87.17 -57.74,-13.68 -116.13,-4.87 -174.14,-7.74 -21.51,-1.06 -24.08,12.14 -23.82,28.86 0.36,23.32 0.09,46.65 0.11,69.97"
         style="fill:#fefefe;fill-opacity:1;fill-rule:nonzero;stroke:none"
         transform="matrix(0.13333333,0,0,-0.13333333,0,317.68)" />
      <path
         id="path29"
         d="m 8492.34,644.012 c -0.04,98.66 -0.04,98.707 96.96,98.59 38.2,-0.051 76.73,2.507 113.44,-11.641 42.55,-16.41 62.76,-49.879 61.29,-93.191 -1.5,-44.282 -26.71,-74.879 -70.73,-85.11 -58.92,-13.691 -119.19,-8.519 -179.01,-9.269 -18.56,-0.231 -22.09,10.558 -21.97,25.679 0.19,24.981 0.05,49.961 0.02,74.942"
         style="fill:#fefefe;fill-opacity:1;fill-rule:nonzero;stroke:none"
         transform="matrix(0.13333333,0,0,-0.13333333,0,317.68)" />
      <path
         id="path30"
         d="m 7366.67,1725.91 c -0.03,95.87 -0.03,96.03 98.62,95.79 34.72,-0.09 69.4,2.14 103.58,-9.02 47.33,-15.45 70.32,-45.99 68.72,-96.07 -1.57,-49.15 -28.56,-74.51 -74.11,-85.45 -57.48,-13.81 -115.76,-4.82 -173.59,-7.84 -17.22,-0.89 -23.88,5.83 -23.4,22.89 0.75,26.55 0.2,53.13 0.18,79.7"
         style="fill:#fefefe;fill-opacity:1;fill-rule:nonzero;stroke:none"
         transform="matrix(0.13333333,0,0,-0.13333333,0,317.68)" />
      <path
         id="path31"
         d="m 9454.82,646.25 c 34.46,-88.828 64.95,-168.449 96.41,-247.668 6.53,-16.453 0.78,-21.094 -14.19,-21.102 -59.43,-0.058 -118.86,-0.019 -184.51,-0.019 34.36,90.301 66.28,174.16 102.29,268.789"
         style="fill:#fefefd;fill-opacity:1;fill-rule:nonzero;stroke:none"
         transform="matrix(0.13333333,0,0,-0.13333333,0,317.68)" />
      <path
         id="path32"
         d="m 4838.16,1463.43 c -61.85,0 -116.8,0.85 -171.7,-0.36 -27.33,-0.6 -35.36,4.48 -23.47,33.55 30.71,75.02 58.02,151.43 90.04,236.17 36.01,-92.25 69.26,-177.45 105.13,-269.36"
         style="fill:#fcfcfc;fill-opacity:1;fill-rule:nonzero;stroke:none"
         transform="matrix(0.13333333,0,0,-0.13333333,0,317.68)" />
      <path
         id="path33"
         d="m 9933.18,1457.46 c 34.25,89.81 65.87,172.72 101.82,267.02 35.1,-89.49 66.9,-170.05 98,-250.87 5.7,-14.73 -6.1,-16.04 -16.3,-16.07 -59.3,-0.18 -118.59,-0.08 -183.52,-0.08"
         style="fill:#fefdfd;fill-opacity:1;fill-rule:nonzero;stroke:none"
         transform="matrix(0.13333333,0,0,-0.13333333,0,317.68)" />
      <path
         id="path34"
         d="m 3906.66,1724.73 c -0.01,105.99 -0.01,105.59 104.65,105.58 30.16,0 59.3,-4.54 87.6,-13.87 44.29,-14.6 68.81,-45.42 67.25,-92.71 -1.53,-46.29 -26.18,-77.44 -70.12,-91.68 -56.55,-18.33 -115.13,-7.6 -172.79,-10.23 -17.87,-0.82 -16.62,11.59 -16.6,23.36 0.05,26.52 0.02,53.04 0.01,79.55"
         style="fill:#fefefe;fill-opacity:1;fill-rule:nonzero;stroke:none"
         transform="matrix(0.13333333,0,0,-0.13333333,0,317.68)" />
      <path
         id="path35"
         d="m 2796.55,1110.93 c -189.83,0 -379.66,0.77 -569.48,-0.75 -32.1,-0.26 -41.31,7.49 -41.2,40.59 1.24,381.32 1.24,762.65 -0.03,1143.97 -0.1,31.91 9.13,37.79 38.94,37.71 381.32,-1.03 762.64,-1.05 1143.96,0.03 30.21,0.08 38.81,-6.41 38.71,-37.95 -1.23,-381.32 -1.26,-762.64 0.02,-1143.96 0.11,-33.51 -9.72,-40.61 -41.44,-40.36 -189.81,1.46 -379.65,0.72 -569.48,0.72"
         style="fill:#ffffff;fill-opacity:1;fill-rule:nonzero;stroke:none"
         transform="matrix(0.13333333,0,0,-0.13333333,0,317.68)" />
      <path
         id="path36"
         d="m 95.8242,467.641 c -0.0039,106.66 1.086,213.328 -0.7031,319.961 -0.5,29.867 6.0429,40.687 38.0239,39.218 82.902,-3.808 166.316,4.61 248.48,-14.75 C 552.711,771.762 664.082,619.559 650.309,443.379 635.777,257.48 506.531,124.238 326.063,112.051 c -64.704,-4.371 -129.844,-2 -194.665,-5.16 -28.367,-1.391 -36.6441,7.257 -36.2183,35.8 1.6133,108.289 0.6484,216.629 0.6445,324.95"
         style="fill:#ffffff;fill-opacity:1;fill-rule:nonzero;stroke:none"
         transform="matrix(0.13333333,0,0,-0.13333333,0,317.68)" />
      <path
         id="path37"
         d="m 3158.55,1760.64 c -5,-138.08 -53.34,-284.28 -168.81,-404.52 -84.81,-88.32 -185.63,-139.54 -308.5,-109.15 -126.57,31.32 -189.73,129.27 -216.29,249.43 -50.92,230.37 7.24,432.43 178.24,595.42 125.94,120.04 297.61,123.61 402.86,14.74 85.89,-88.84 112.92,-200.35 112.5,-345.92"
         style="fill:#141113;fill-opacity:1;fill-rule:nonzero;stroke:none"
         transform="matrix(0.13333333,0,0,-0.13333333,0,317.68)" />
    </g>
  </g>
</svg>
